solid PlateModel_noHoles
   facet normal 0.000000e+00 0.000000e+00 1.000000e+00
      outer loop
         vertex 0.000000e+00 0.000000e+00 4.791757e+02
         vertex 6.000000e+02 0.000000e+00 4.791757e+02
         vertex 0.000000e+00 5.000000e+00 4.791757e+02
      endloop
   endfacet
   facet normal -0.000000e+00 0.000000e+00 1.000000e+00
      outer loop
         vertex 0.000000e+00 5.000000e+00 4.791757e+02
         vertex 6.000000e+02 0.000000e+00 4.791757e+02
         vertex 6.000000e+02 5.000000e+00 4.791757e+02
      endloop
   endfacet
   facet normal -1.000000e+00 0.000000e+00 0.000000e+00
      outer loop
         vertex 0.000000e+00 0.000000e+00 2.917576e+01
         vertex 0.000000e+00 0.000000e+00 4.791757e+02
         vertex 0.000000e+00 5.000000e+00 2.917576e+01
      endloop
   endfacet
   facet normal -1.000000e+00 0.000000e+00 0.000000e+00
      outer loop
         vertex 0.000000e+00 5.000000e+00 2.917576e+01
         vertex 0.000000e+00 0.000000e+00 4.791757e+02
         vertex 0.000000e+00 5.000000e+00 4.791757e+02
      endloop
   endfacet
   facet normal 0.000000e+00 0.000000e+00 -1.000000e+00
      outer loop
         vertex 6.000000e+02 0.000000e+00 2.917576e+01
         vertex 0.000000e+00 0.000000e+00 2.917576e+01
         vertex 6.000000e+02 5.000000e+00 2.917576e+01
      endloop
   endfacet
   facet normal -0.000000e+00 0.000000e+00 -1.000000e+00
      outer loop
         vertex 6.000000e+02 5.000000e+00 2.917576e+01
         vertex 0.000000e+00 0.000000e+00 2.917576e+01
         vertex 0.000000e+00 5.000000e+00 2.917576e+01
      endloop
   endfacet
   facet normal 1.000000e+00 -0.000000e+00 0.000000e+00
      outer loop
         vertex 6.000000e+02 0.000000e+00 4.791757e+02
         vertex 6.000000e+02 0.000000e+00 2.917576e+01
         vertex 6.000000e+02 5.000000e+00 4.791757e+02
      endloop
   endfacet
   facet normal 1.000000e+00 0.000000e+00 0.000000e+00
      outer loop
         vertex 6.000000e+02 5.000000e+00 4.791757e+02
         vertex 6.000000e+02 0.000000e+00 2.917576e+01
         vertex 6.000000e+02 5.000000e+00 2.917576e+01
      endloop
   endfacet
   facet normal 0.000000e+00 -1.000000e+00 0.000000e+00
      outer loop
         vertex 0.000000e+00 0.000000e+00 2.917576e+01
         vertex 6.000000e+02 0.000000e+00 2.917576e+01
         vertex 0.000000e+00 0.000000e+00 4.791757e+02
      endloop
   endfacet
   facet normal 0.000000e+00 -1.000000e+00 0.000000e+00
      outer loop
         vertex 0.000000e+00 0.000000e+00 4.791757e+02
         vertex 6.000000e+02 0.000000e+00 2.917576e+01
         vertex 6.000000e+02 0.000000e+00 4.791757e+02
      endloop
   endfacet
   facet normal 0.000000e+00 1.000000e+00 -0.000000e+00
      outer loop
         vertex 6.000000e+02 5.000000e+00 2.917576e+01
         vertex 0.000000e+00 5.000000e+00 2.917576e+01
         vertex 6.000000e+02 5.000000e+00 4.791757e+02
      endloop
   endfacet
   facet normal 0.000000e+00 1.000000e+00 0.000000e+00
      outer loop
         vertex 6.000000e+02 5.000000e+00 4.791757e+02
         vertex 0.000000e+00 5.000000e+00 2.917576e+01
         vertex 0.000000e+00 5.000000e+00 4.791757e+02
      endloop
   endfacet
endsolid