solid Bolts_square_large
   facet normal 0.000000e+00 0.000000e+00 1.000000e+00
      outer loop
         vertex 3.700000e+02 6.500000e+00 1.400000e+02
         vertex 3.600000e+02 6.500000e+00 1.400000e+02
         vertex 3.700000e+02 5.500000e+00 1.400000e+02
      endloop
   endfacet
   facet normal 0.000000e+00 0.000000e+00 1.000000e+00
      outer loop
         vertex 3.700000e+02 5.500000e+00 1.400000e+02
         vertex 3.600000e+02 6.500000e+00 1.400000e+02
         vertex 3.600000e+02 5.500000e+00 1.400000e+02
      endloop
   endfacet
   facet normal 0.000000e+00 1.000000e+00 -0.000000e+00
      outer loop
         vertex 3.700000e+02 6.500000e+00 1.300000e+02
         vertex 3.600000e+02 6.500000e+00 1.300000e+02
         vertex 3.700000e+02 6.500000e+00 1.400000e+02
      endloop
   endfacet
   facet normal 0.000000e+00 1.000000e+00 0.000000e+00
      outer loop
         vertex 3.700000e+02 6.500000e+00 1.400000e+02
         vertex 3.600000e+02 6.500000e+00 1.300000e+02
         vertex 3.600000e+02 6.500000e+00 1.400000e+02
      endloop
   endfacet
   facet normal 0.000000e+00 0.000000e+00 -1.000000e+00
      outer loop
         vertex 3.700000e+02 5.500000e+00 1.300000e+02
         vertex 3.600000e+02 5.500000e+00 1.300000e+02
         vertex 3.700000e+02 6.500000e+00 1.300000e+02
      endloop
   endfacet
   facet normal -0.000000e+00 0.000000e+00 -1.000000e+00
      outer loop
         vertex 3.700000e+02 6.500000e+00 1.300000e+02
         vertex 3.600000e+02 5.500000e+00 1.300000e+02
         vertex 3.600000e+02 6.500000e+00 1.300000e+02
      endloop
   endfacet
   facet normal -0.000000e+00 -1.000000e+00 -0.000000e+00
      outer loop
         vertex 3.700000e+02 5.500000e+00 1.400000e+02
         vertex 3.600000e+02 5.500000e+00 1.400000e+02
         vertex 3.700000e+02 5.500000e+00 1.300000e+02
      endloop
   endfacet
   facet normal 0.000000e+00 -1.000000e+00 0.000000e+00
      outer loop
         vertex 3.700000e+02 5.500000e+00 1.300000e+02
         vertex 3.600000e+02 5.500000e+00 1.400000e+02
         vertex 3.600000e+02 5.500000e+00 1.300000e+02
      endloop
   endfacet
   facet normal -1.000000e+00 0.000000e+00 0.000000e+00
      outer loop
         vertex 3.600000e+02 6.500000e+00 1.300000e+02
         vertex 3.600000e+02 5.500000e+00 1.300000e+02
         vertex 3.600000e+02 6.500000e+00 1.400000e+02
      endloop
   endfacet
   facet normal -1.000000e+00 -0.000000e+00 0.000000e+00
      outer loop
         vertex 3.600000e+02 6.500000e+00 1.400000e+02
         vertex 3.600000e+02 5.500000e+00 1.300000e+02
         vertex 3.600000e+02 5.500000e+00 1.400000e+02
      endloop
   endfacet
   facet normal 1.000000e+00 0.000000e+00 0.000000e+00
      outer loop
         vertex 3.700000e+02 5.500000e+00 1.300000e+02
         vertex 3.700000e+02 6.500000e+00 1.300000e+02
         vertex 3.700000e+02 5.500000e+00 1.400000e+02
      endloop
   endfacet
   facet normal 1.000000e+00 -0.000000e+00 0.000000e+00
      outer loop
         vertex 3.700000e+02 5.500000e+00 1.400000e+02
         vertex 3.700000e+02 6.500000e+00 1.300000e+02
         vertex 3.700000e+02 6.500000e+00 1.400000e+02
      endloop
   endfacet
   facet normal 0.000000e+00 0.000000e+00 1.000000e+00
      outer loop
         vertex 3.700000e+02 6.500000e+00 1.400000e+02
         vertex 3.600000e+02 6.500000e+00 1.400000e+02
         vertex 3.700000e+02 5.500000e+00 1.400000e+02
      endloop
   endfacet
   facet normal 0.000000e+00 0.000000e+00 1.000000e+00
      outer loop
         vertex 3.700000e+02 5.500000e+00 1.400000e+02
         vertex 3.600000e+02 6.500000e+00 1.400000e+02
         vertex 3.600000e+02 5.500000e+00 1.400000e+02
      endloop
   endfacet
   facet normal 0.000000e+00 1.000000e+00 -0.000000e+00
      outer loop
         vertex 3.700000e+02 6.500000e+00 1.300000e+02
         vertex 3.600000e+02 6.500000e+00 1.300000e+02
         vertex 3.700000e+02 6.500000e+00 1.400000e+02
      endloop
   endfacet
   facet normal 0.000000e+00 1.000000e+00 0.000000e+00
      outer loop
         vertex 3.700000e+02 6.500000e+00 1.400000e+02
         vertex 3.600000e+02 6.500000e+00 1.300000e+02
         vertex 3.600000e+02 6.500000e+00 1.400000e+02
      endloop
   endfacet
   facet normal 0.000000e+00 0.000000e+00 -1.000000e+00
      outer loop
         vertex 3.700000e+02 5.500000e+00 1.300000e+02
         vertex 3.600000e+02 5.500000e+00 1.300000e+02
         vertex 3.700000e+02 6.500000e+00 1.300000e+02
      endloop
   endfacet
   facet normal -0.000000e+00 0.000000e+00 -1.000000e+00
      outer loop
         vertex 3.700000e+02 6.500000e+00 1.300000e+02
         vertex 3.600000e+02 5.500000e+00 1.300000e+02
         vertex 3.600000e+02 6.500000e+00 1.300000e+02
      endloop
   endfacet
   facet normal -0.000000e+00 -1.000000e+00 -0.000000e+00
      outer loop
         vertex 3.700000e+02 5.500000e+00 1.400000e+02
         vertex 3.600000e+02 5.500000e+00 1.400000e+02
         vertex 3.700000e+02 5.500000e+00 1.300000e+02
      endloop
   endfacet
   facet normal 0.000000e+00 -1.000000e+00 0.000000e+00
      outer loop
         vertex 3.700000e+02 5.500000e+00 1.300000e+02
         vertex 3.600000e+02 5.500000e+00 1.400000e+02
         vertex 3.600000e+02 5.500000e+00 1.300000e+02
      endloop
   endfacet
   facet normal -1.000000e+00 0.000000e+00 0.000000e+00
      outer loop
         vertex 3.600000e+02 6.500000e+00 1.300000e+02
         vertex 3.600000e+02 5.500000e+00 1.300000e+02
         vertex 3.600000e+02 6.500000e+00 1.400000e+02
      endloop
   endfacet
   facet normal -1.000000e+00 -0.000000e+00 0.000000e+00
      outer loop
         vertex 3.600000e+02 6.500000e+00 1.400000e+02
         vertex 3.600000e+02 5.500000e+00 1.300000e+02
         vertex 3.600000e+02 5.500000e+00 1.400000e+02
      endloop
   endfacet
   facet normal 1.000000e+00 0.000000e+00 0.000000e+00
      outer loop
         vertex 3.700000e+02 5.500000e+00 1.300000e+02
         vertex 3.700000e+02 6.500000e+00 1.300000e+02
         vertex 3.700000e+02 5.500000e+00 1.400000e+02
      endloop
   endfacet
   facet normal 1.000000e+00 -0.000000e+00 0.000000e+00
      outer loop
         vertex 3.700000e+02 5.500000e+00 1.400000e+02
         vertex 3.700000e+02 6.500000e+00 1.300000e+02
         vertex 3.700000e+02 6.500000e+00 1.400000e+02
      endloop
   endfacet
   facet normal 0.000000e+00 0.000000e+00 1.000000e+00
      outer loop
         vertex 3.250000e+02 6.500000e+00 9.500000e+01
         vertex 3.150000e+02 6.500000e+00 9.500000e+01
         vertex 3.250000e+02 5.500000e+00 9.500000e+01
      endloop
   endfacet
   facet normal 0.000000e+00 0.000000e+00 1.000000e+00
      outer loop
         vertex 3.250000e+02 5.500000e+00 9.500000e+01
         vertex 3.150000e+02 6.500000e+00 9.500000e+01
         vertex 3.150000e+02 5.500000e+00 9.500000e+01
      endloop
   endfacet
   facet normal 0.000000e+00 1.000000e+00 -0.000000e+00
      outer loop
         vertex 3.250000e+02 6.500000e+00 8.500001e+01
         vertex 3.150000e+02 6.500000e+00 8.500001e+01
         vertex 3.250000e+02 6.500000e+00 9.500000e+01
      endloop
   endfacet
   facet normal 0.000000e+00 1.000000e+00 0.000000e+00
      outer loop
         vertex 3.250000e+02 6.500000e+00 9.500000e+01
         vertex 3.150000e+02 6.500000e+00 8.500001e+01
         vertex 3.150000e+02 6.500000e+00 9.500000e+01
      endloop
   endfacet
   facet normal 0.000000e+00 0.000000e+00 -1.000000e+00
      outer loop
         vertex 3.250000e+02 5.500000e+00 8.500001e+01
         vertex 3.150000e+02 5.500000e+00 8.500001e+01
         vertex 3.250000e+02 6.500000e+00 8.500001e+01
      endloop
   endfacet
   facet normal -0.000000e+00 0.000000e+00 -1.000000e+00
      outer loop
         vertex 3.250000e+02 6.500000e+00 8.500001e+01
         vertex 3.150000e+02 5.500000e+00 8.500001e+01
         vertex 3.150000e+02 6.500000e+00 8.500001e+01
      endloop
   endfacet
   facet normal -0.000000e+00 -1.000000e+00 -0.000000e+00
      outer loop
         vertex 3.250000e+02 5.500000e+00 9.500000e+01
         vertex 3.150000e+02 5.500000e+00 9.500000e+01
         vertex 3.250000e+02 5.500000e+00 8.500001e+01
      endloop
   endfacet
   facet normal 0.000000e+00 -1.000000e+00 0.000000e+00
      outer loop
         vertex 3.250000e+02 5.500000e+00 8.500001e+01
         vertex 3.150000e+02 5.500000e+00 9.500000e+01
         vertex 3.150000e+02 5.500000e+00 8.500001e+01
      endloop
   endfacet
   facet normal -1.000000e+00 0.000000e+00 0.000000e+00
      outer loop
         vertex 3.150000e+02 6.500000e+00 8.500001e+01
         vertex 3.150000e+02 5.500000e+00 8.500001e+01
         vertex 3.150000e+02 6.500000e+00 9.500000e+01
      endloop
   endfacet
   facet normal -1.000000e+00 -0.000000e+00 0.000000e+00
      outer loop
         vertex 3.150000e+02 6.500000e+00 9.500000e+01
         vertex 3.150000e+02 5.500000e+00 8.500001e+01
         vertex 3.150000e+02 5.500000e+00 9.500000e+01
      endloop
   endfacet
   facet normal 1.000000e+00 0.000000e+00 0.000000e+00
      outer loop
         vertex 3.250000e+02 5.500000e+00 8.500001e+01
         vertex 3.250000e+02 6.500000e+00 8.500001e+01
         vertex 3.250000e+02 5.500000e+00 9.500000e+01
      endloop
   endfacet
   facet normal 1.000000e+00 -0.000000e+00 0.000000e+00
      outer loop
         vertex 3.250000e+02 5.500000e+00 9.500000e+01
         vertex 3.250000e+02 6.500000e+00 8.500001e+01
         vertex 3.250000e+02 6.500000e+00 9.500000e+01
      endloop
   endfacet
   facet normal 0.000000e+00 0.000000e+00 1.000000e+00
      outer loop
         vertex 4.150000e+02 6.500000e+00 1.850000e+02
         vertex 4.050000e+02 6.500000e+00 1.850000e+02
         vertex 4.150000e+02 5.500000e+00 1.850000e+02
      endloop
   endfacet
   facet normal 0.000000e+00 0.000000e+00 1.000000e+00
      outer loop
         vertex 4.150000e+02 5.500000e+00 1.850000e+02
         vertex 4.050000e+02 6.500000e+00 1.850000e+02
         vertex 4.050000e+02 5.500000e+00 1.850000e+02
      endloop
   endfacet
   facet normal 0.000000e+00 1.000000e+00 -0.000000e+00
      outer loop
         vertex 4.150000e+02 6.500000e+00 1.750000e+02
         vertex 4.050000e+02 6.500000e+00 1.750000e+02
         vertex 4.150000e+02 6.500000e+00 1.850000e+02
      endloop
   endfacet
   facet normal 0.000000e+00 1.000000e+00 0.000000e+00
      outer loop
         vertex 4.150000e+02 6.500000e+00 1.850000e+02
         vertex 4.050000e+02 6.500000e+00 1.750000e+02
         vertex 4.050000e+02 6.500000e+00 1.850000e+02
      endloop
   endfacet
   facet normal 0.000000e+00 0.000000e+00 -1.000000e+00
      outer loop
         vertex 4.150000e+02 5.500000e+00 1.750000e+02
         vertex 4.050000e+02 5.500000e+00 1.750000e+02
         vertex 4.150000e+02 6.500000e+00 1.750000e+02
      endloop
   endfacet
   facet normal -0.000000e+00 0.000000e+00 -1.000000e+00
      outer loop
         vertex 4.150000e+02 6.500000e+00 1.750000e+02
         vertex 4.050000e+02 5.500000e+00 1.750000e+02
         vertex 4.050000e+02 6.500000e+00 1.750000e+02
      endloop
   endfacet
   facet normal -0.000000e+00 -1.000000e+00 -0.000000e+00
      outer loop
         vertex 4.150000e+02 5.500000e+00 1.850000e+02
         vertex 4.050000e+02 5.500000e+00 1.850000e+02
         vertex 4.150000e+02 5.500000e+00 1.750000e+02
      endloop
   endfacet
   facet normal 0.000000e+00 -1.000000e+00 0.000000e+00
      outer loop
         vertex 4.150000e+02 5.500000e+00 1.750000e+02
         vertex 4.050000e+02 5.500000e+00 1.850000e+02
         vertex 4.050000e+02 5.500000e+00 1.750000e+02
      endloop
   endfacet
   facet normal -1.000000e+00 0.000000e+00 0.000000e+00
      outer loop
         vertex 4.050000e+02 6.500000e+00 1.750000e+02
         vertex 4.050000e+02 5.500000e+00 1.750000e+02
         vertex 4.050000e+02 6.500000e+00 1.850000e+02
      endloop
   endfacet
   facet normal -1.000000e+00 -0.000000e+00 0.000000e+00
      outer loop
         vertex 4.050000e+02 6.500000e+00 1.850000e+02
         vertex 4.050000e+02 5.500000e+00 1.750000e+02
         vertex 4.050000e+02 5.500000e+00 1.850000e+02
      endloop
   endfacet
   facet normal 1.000000e+00 0.000000e+00 0.000000e+00
      outer loop
         vertex 4.150000e+02 5.500000e+00 1.750000e+02
         vertex 4.150000e+02 6.500000e+00 1.750000e+02
         vertex 4.150000e+02 5.500000e+00 1.850000e+02
      endloop
   endfacet
   facet normal 1.000000e+00 -0.000000e+00 0.000000e+00
      outer loop
         vertex 4.150000e+02 5.500000e+00 1.850000e+02
         vertex 4.150000e+02 6.500000e+00 1.750000e+02
         vertex 4.150000e+02 6.500000e+00 1.850000e+02
      endloop
   endfacet
   facet normal 0.000000e+00 0.000000e+00 1.000000e+00
      outer loop
         vertex 4.600000e+02 6.500000e+00 1.400000e+02
         vertex 4.500000e+02 6.500000e+00 1.400000e+02
         vertex 4.600000e+02 5.500000e+00 1.400000e+02
      endloop
   endfacet
   facet normal 0.000000e+00 0.000000e+00 1.000000e+00
      outer loop
         vertex 4.600000e+02 5.500000e+00 1.400000e+02
         vertex 4.500000e+02 6.500000e+00 1.400000e+02
         vertex 4.500000e+02 5.500000e+00 1.400000e+02
      endloop
   endfacet
   facet normal 0.000000e+00 1.000000e+00 -0.000000e+00
      outer loop
         vertex 4.600000e+02 6.500000e+00 1.300000e+02
         vertex 4.500000e+02 6.500000e+00 1.300000e+02
         vertex 4.600000e+02 6.500000e+00 1.400000e+02
      endloop
   endfacet
   facet normal 0.000000e+00 1.000000e+00 0.000000e+00
      outer loop
         vertex 4.600000e+02 6.500000e+00 1.400000e+02
         vertex 4.500000e+02 6.500000e+00 1.300000e+02
         vertex 4.500000e+02 6.500000e+00 1.400000e+02
      endloop
   endfacet
   facet normal 0.000000e+00 0.000000e+00 -1.000000e+00
      outer loop
         vertex 4.600000e+02 5.500000e+00 1.300000e+02
         vertex 4.500000e+02 5.500000e+00 1.300000e+02
         vertex 4.600000e+02 6.500000e+00 1.300000e+02
      endloop
   endfacet
   facet normal -0.000000e+00 0.000000e+00 -1.000000e+00
      outer loop
         vertex 4.600000e+02 6.500000e+00 1.300000e+02
         vertex 4.500000e+02 5.500000e+00 1.300000e+02
         vertex 4.500000e+02 6.500000e+00 1.300000e+02
      endloop
   endfacet
   facet normal -0.000000e+00 -1.000000e+00 -0.000000e+00
      outer loop
         vertex 4.600000e+02 5.500000e+00 1.400000e+02
         vertex 4.500000e+02 5.500000e+00 1.400000e+02
         vertex 4.600000e+02 5.500000e+00 1.300000e+02
      endloop
   endfacet
   facet normal 0.000000e+00 -1.000000e+00 0.000000e+00
      outer loop
         vertex 4.600000e+02 5.500000e+00 1.300000e+02
         vertex 4.500000e+02 5.500000e+00 1.400000e+02
         vertex 4.500000e+02 5.500000e+00 1.300000e+02
      endloop
   endfacet
   facet normal -1.000000e+00 0.000000e+00 0.000000e+00
      outer loop
         vertex 4.500000e+02 6.500000e+00 1.300000e+02
         vertex 4.500000e+02 5.500000e+00 1.300000e+02
         vertex 4.500000e+02 6.500000e+00 1.400000e+02
      endloop
   endfacet
   facet normal -1.000000e+00 -0.000000e+00 0.000000e+00
      outer loop
         vertex 4.500000e+02 6.500000e+00 1.400000e+02
         vertex 4.500000e+02 5.500000e+00 1.300000e+02
         vertex 4.500000e+02 5.500000e+00 1.400000e+02
      endloop
   endfacet
   facet normal 1.000000e+00 0.000000e+00 0.000000e+00
      outer loop
         vertex 4.600000e+02 5.500000e+00 1.300000e+02
         vertex 4.600000e+02 6.500000e+00 1.300000e+02
         vertex 4.600000e+02 5.500000e+00 1.400000e+02
      endloop
   endfacet
   facet normal 1.000000e+00 -0.000000e+00 0.000000e+00
      outer loop
         vertex 4.600000e+02 5.500000e+00 1.400000e+02
         vertex 4.600000e+02 6.500000e+00 1.300000e+02
         vertex 4.600000e+02 6.500000e+00 1.400000e+02
      endloop
   endfacet
   facet normal 0.000000e+00 0.000000e+00 1.000000e+00
      outer loop
         vertex 4.150000e+02 6.500000e+00 9.500000e+01
         vertex 4.050000e+02 6.500000e+00 9.500000e+01
         vertex 4.150000e+02 5.500000e+00 9.500000e+01
      endloop
   endfacet
   facet normal 0.000000e+00 0.000000e+00 1.000000e+00
      outer loop
         vertex 4.150000e+02 5.500000e+00 9.500000e+01
         vertex 4.050000e+02 6.500000e+00 9.500000e+01
         vertex 4.050000e+02 5.500000e+00 9.500000e+01
      endloop
   endfacet
   facet normal 0.000000e+00 1.000000e+00 -0.000000e+00
      outer loop
         vertex 4.150000e+02 6.500000e+00 8.500001e+01
         vertex 4.050000e+02 6.500000e+00 8.500001e+01
         vertex 4.150000e+02 6.500000e+00 9.500000e+01
      endloop
   endfacet
   facet normal 0.000000e+00 1.000000e+00 0.000000e+00
      outer loop
         vertex 4.150000e+02 6.500000e+00 9.500000e+01
         vertex 4.050000e+02 6.500000e+00 8.500001e+01
         vertex 4.050000e+02 6.500000e+00 9.500000e+01
      endloop
   endfacet
   facet normal 0.000000e+00 0.000000e+00 -1.000000e+00
      outer loop
         vertex 4.150000e+02 5.500000e+00 8.500001e+01
         vertex 4.050000e+02 5.500000e+00 8.500001e+01
         vertex 4.150000e+02 6.500000e+00 8.500001e+01
      endloop
   endfacet
   facet normal -0.000000e+00 0.000000e+00 -1.000000e+00
      outer loop
         vertex 4.150000e+02 6.500000e+00 8.500001e+01
         vertex 4.050000e+02 5.500000e+00 8.500001e+01
         vertex 4.050000e+02 6.500000e+00 8.500001e+01
      endloop
   endfacet
   facet normal -0.000000e+00 -1.000000e+00 -0.000000e+00
      outer loop
         vertex 4.150000e+02 5.500000e+00 9.500000e+01
         vertex 4.050000e+02 5.500000e+00 9.500000e+01
         vertex 4.150000e+02 5.500000e+00 8.500001e+01
      endloop
   endfacet
   facet normal 0.000000e+00 -1.000000e+00 0.000000e+00
      outer loop
         vertex 4.150000e+02 5.500000e+00 8.500001e+01
         vertex 4.050000e+02 5.500000e+00 9.500000e+01
         vertex 4.050000e+02 5.500000e+00 8.500001e+01
      endloop
   endfacet
   facet normal -1.000000e+00 0.000000e+00 0.000000e+00
      outer loop
         vertex 4.050000e+02 6.500000e+00 8.500001e+01
         vertex 4.050000e+02 5.500000e+00 8.500001e+01
         vertex 4.050000e+02 6.500000e+00 9.500000e+01
      endloop
   endfacet
   facet normal -1.000000e+00 -0.000000e+00 0.000000e+00
      outer loop
         vertex 4.050000e+02 6.500000e+00 9.500000e+01
         vertex 4.050000e+02 5.500000e+00 8.500001e+01
         vertex 4.050000e+02 5.500000e+00 9.500000e+01
      endloop
   endfacet
   facet normal 1.000000e+00 0.000000e+00 0.000000e+00
      outer loop
         vertex 4.150000e+02 5.500000e+00 8.500001e+01
         vertex 4.150000e+02 6.500000e+00 8.500001e+01
         vertex 4.150000e+02 5.500000e+00 9.500000e+01
      endloop
   endfacet
   facet normal 1.000000e+00 -0.000000e+00 0.000000e+00
      outer loop
         vertex 4.150000e+02 5.500000e+00 9.500000e+01
         vertex 4.150000e+02 6.500000e+00 8.500001e+01
         vertex 4.150000e+02 6.500000e+00 9.500000e+01
      endloop
   endfacet
   facet normal 0.000000e+00 0.000000e+00 1.000000e+00
      outer loop
         vertex 5.500001e+01 6.500000e+00 9.500000e+01
         vertex 4.500000e+01 6.500000e+00 9.500000e+01
         vertex 5.500001e+01 5.500000e+00 9.500000e+01
      endloop
   endfacet
   facet normal 0.000000e+00 0.000000e+00 1.000000e+00
      outer loop
         vertex 5.500001e+01 5.500000e+00 9.500000e+01
         vertex 4.500000e+01 6.500000e+00 9.500000e+01
         vertex 4.500000e+01 5.500000e+00 9.500000e+01
      endloop
   endfacet
   facet normal 0.000000e+00 1.000000e+00 -0.000000e+00
      outer loop
         vertex 5.500001e+01 6.500000e+00 8.500001e+01
         vertex 4.500000e+01 6.500000e+00 8.500001e+01
         vertex 5.500001e+01 6.500000e+00 9.500000e+01
      endloop
   endfacet
   facet normal 0.000000e+00 1.000000e+00 0.000000e+00
      outer loop
         vertex 5.500001e+01 6.500000e+00 9.500000e+01
         vertex 4.500000e+01 6.500000e+00 8.500001e+01
         vertex 4.500000e+01 6.500000e+00 9.500000e+01
      endloop
   endfacet
   facet normal 0.000000e+00 0.000000e+00 -1.000000e+00
      outer loop
         vertex 5.500001e+01 5.500000e+00 8.500001e+01
         vertex 4.500000e+01 5.500000e+00 8.500001e+01
         vertex 5.500001e+01 6.500000e+00 8.500001e+01
      endloop
   endfacet
   facet normal -0.000000e+00 0.000000e+00 -1.000000e+00
      outer loop
         vertex 5.500001e+01 6.500000e+00 8.500001e+01
         vertex 4.500000e+01 5.500000e+00 8.500001e+01
         vertex 4.500000e+01 6.500000e+00 8.500001e+01
      endloop
   endfacet
   facet normal -0.000000e+00 -1.000000e+00 -0.000000e+00
      outer loop
         vertex 5.500001e+01 5.500000e+00 9.500000e+01
         vertex 4.500000e+01 5.500000e+00 9.500000e+01
         vertex 5.500001e+01 5.500000e+00 8.500001e+01
      endloop
   endfacet
   facet normal 0.000000e+00 -1.000000e+00 0.000000e+00
      outer loop
         vertex 5.500001e+01 5.500000e+00 8.500001e+01
         vertex 4.500000e+01 5.500000e+00 9.500000e+01
         vertex 4.500000e+01 5.500000e+00 8.500001e+01
      endloop
   endfacet
   facet normal -1.000000e+00 0.000000e+00 0.000000e+00
      outer loop
         vertex 4.500000e+01 6.500000e+00 8.500001e+01
         vertex 4.500000e+01 5.500000e+00 8.500001e+01
         vertex 4.500000e+01 6.500000e+00 9.500000e+01
      endloop
   endfacet
   facet normal -1.000000e+00 -0.000000e+00 0.000000e+00
      outer loop
         vertex 4.500000e+01 6.500000e+00 9.500000e+01
         vertex 4.500000e+01 5.500000e+00 8.500001e+01
         vertex 4.500000e+01 5.500000e+00 9.500000e+01
      endloop
   endfacet
   facet normal 1.000000e+00 0.000000e+00 0.000000e+00
      outer loop
         vertex 5.500001e+01 5.500000e+00 8.500001e+01
         vertex 5.500001e+01 6.500000e+00 8.500001e+01
         vertex 5.500001e+01 5.500000e+00 9.500000e+01
      endloop
   endfacet
   facet normal 1.000000e+00 -0.000000e+00 0.000000e+00
      outer loop
         vertex 5.500001e+01 5.500000e+00 9.500000e+01
         vertex 5.500001e+01 6.500000e+00 8.500001e+01
         vertex 5.500001e+01 6.500000e+00 9.500000e+01
      endloop
   endfacet
   facet normal 0.000000e+00 0.000000e+00 1.000000e+00
      outer loop
         vertex 1.000001e+01 6.500000e+00 1.400000e+02
         vertex 0.000000e+00 6.500000e+00 1.400000e+02
         vertex 1.000001e+01 5.500000e+00 1.400000e+02
      endloop
   endfacet
   facet normal 0.000000e+00 0.000000e+00 1.000000e+00
      outer loop
         vertex 1.000001e+01 5.500000e+00 1.400000e+02
         vertex 0.000000e+00 6.500000e+00 1.400000e+02
         vertex 0.000000e+00 5.500000e+00 1.400000e+02
      endloop
   endfacet
   facet normal 0.000000e+00 1.000000e+00 -0.000000e+00
      outer loop
         vertex 1.000001e+01 6.500000e+00 1.300000e+02
         vertex 0.000000e+00 6.500000e+00 1.300000e+02
         vertex 1.000001e+01 6.500000e+00 1.400000e+02
      endloop
   endfacet
   facet normal 0.000000e+00 1.000000e+00 0.000000e+00
      outer loop
         vertex 1.000001e+01 6.500000e+00 1.400000e+02
         vertex 0.000000e+00 6.500000e+00 1.300000e+02
         vertex 0.000000e+00 6.500000e+00 1.400000e+02
      endloop
   endfacet
   facet normal 0.000000e+00 0.000000e+00 -1.000000e+00
      outer loop
         vertex 1.000001e+01 5.500000e+00 1.300000e+02
         vertex 0.000000e+00 5.500000e+00 1.300000e+02
         vertex 1.000001e+01 6.500000e+00 1.300000e+02
      endloop
   endfacet
   facet normal -0.000000e+00 0.000000e+00 -1.000000e+00
      outer loop
         vertex 1.000001e+01 6.500000e+00 1.300000e+02
         vertex 0.000000e+00 5.500000e+00 1.300000e+02
         vertex 0.000000e+00 6.500000e+00 1.300000e+02
      endloop
   endfacet
   facet normal -0.000000e+00 -1.000000e+00 -0.000000e+00
      outer loop
         vertex 1.000001e+01 5.500000e+00 1.400000e+02
         vertex 0.000000e+00 5.500000e+00 1.400000e+02
         vertex 1.000001e+01 5.500000e+00 1.300000e+02
      endloop
   endfacet
   facet normal 0.000000e+00 -1.000000e+00 0.000000e+00
      outer loop
         vertex 1.000001e+01 5.500000e+00 1.300000e+02
         vertex 0.000000e+00 5.500000e+00 1.400000e+02
         vertex 0.000000e+00 5.500000e+00 1.300000e+02
      endloop
   endfacet
   facet normal -1.000000e+00 0.000000e+00 0.000000e+00
      outer loop
         vertex 0.000000e+00 6.500000e+00 1.300000e+02
         vertex 0.000000e+00 5.500000e+00 1.300000e+02
         vertex 0.000000e+00 6.500000e+00 1.400000e+02
      endloop
   endfacet
   facet normal -1.000000e+00 -0.000000e+00 0.000000e+00
      outer loop
         vertex 0.000000e+00 6.500000e+00 1.400000e+02
         vertex 0.000000e+00 5.500000e+00 1.300000e+02
         vertex 0.000000e+00 5.500000e+00 1.400000e+02
      endloop
   endfacet
   facet normal 1.000000e+00 0.000000e+00 0.000000e+00
      outer loop
         vertex 1.000001e+01 5.500000e+00 1.300000e+02
         vertex 1.000001e+01 6.500000e+00 1.300000e+02
         vertex 1.000001e+01 5.500000e+00 1.400000e+02
      endloop
   endfacet
   facet normal 1.000000e+00 -0.000000e+00 0.000000e+00
      outer loop
         vertex 1.000001e+01 5.500000e+00 1.400000e+02
         vertex 1.000001e+01 6.500000e+00 1.300000e+02
         vertex 1.000001e+01 6.500000e+00 1.400000e+02
      endloop
   endfacet
   facet normal 0.000000e+00 0.000000e+00 1.000000e+00
      outer loop
         vertex 5.500001e+01 6.500000e+00 1.850000e+02
         vertex 4.500000e+01 6.500000e+00 1.850000e+02
         vertex 5.500001e+01 5.500000e+00 1.850000e+02
      endloop
   endfacet
   facet normal 0.000000e+00 0.000000e+00 1.000000e+00
      outer loop
         vertex 5.500001e+01 5.500000e+00 1.850000e+02
         vertex 4.500000e+01 6.500000e+00 1.850000e+02
         vertex 4.500000e+01 5.500000e+00 1.850000e+02
      endloop
   endfacet
   facet normal 0.000000e+00 1.000000e+00 -0.000000e+00
      outer loop
         vertex 5.500001e+01 6.500000e+00 1.750000e+02
         vertex 4.500000e+01 6.500000e+00 1.750000e+02
         vertex 5.500001e+01 6.500000e+00 1.850000e+02
      endloop
   endfacet
   facet normal 0.000000e+00 1.000000e+00 0.000000e+00
      outer loop
         vertex 5.500001e+01 6.500000e+00 1.850000e+02
         vertex 4.500000e+01 6.500000e+00 1.750000e+02
         vertex 4.500000e+01 6.500000e+00 1.850000e+02
      endloop
   endfacet
   facet normal 0.000000e+00 0.000000e+00 -1.000000e+00
      outer loop
         vertex 5.500001e+01 5.500000e+00 1.750000e+02
         vertex 4.500000e+01 5.500000e+00 1.750000e+02
         vertex 5.500001e+01 6.500000e+00 1.750000e+02
      endloop
   endfacet
   facet normal -0.000000e+00 0.000000e+00 -1.000000e+00
      outer loop
         vertex 5.500001e+01 6.500000e+00 1.750000e+02
         vertex 4.500000e+01 5.500000e+00 1.750000e+02
         vertex 4.500000e+01 6.500000e+00 1.750000e+02
      endloop
   endfacet
   facet normal -0.000000e+00 -1.000000e+00 -0.000000e+00
      outer loop
         vertex 5.500001e+01 5.500000e+00 1.850000e+02
         vertex 4.500000e+01 5.500000e+00 1.850000e+02
         vertex 5.500001e+01 5.500000e+00 1.750000e+02
      endloop
   endfacet
   facet normal 0.000000e+00 -1.000000e+00 0.000000e+00
      outer loop
         vertex 5.500001e+01 5.500000e+00 1.750000e+02
         vertex 4.500000e+01 5.500000e+00 1.850000e+02
         vertex 4.500000e+01 5.500000e+00 1.750000e+02
      endloop
   endfacet
   facet normal -1.000000e+00 0.000000e+00 0.000000e+00
      outer loop
         vertex 4.500000e+01 6.500000e+00 1.750000e+02
         vertex 4.500000e+01 5.500000e+00 1.750000e+02
         vertex 4.500000e+01 6.500000e+00 1.850000e+02
      endloop
   endfacet
   facet normal -1.000000e+00 -0.000000e+00 0.000000e+00
      outer loop
         vertex 4.500000e+01 6.500000e+00 1.850000e+02
         vertex 4.500000e+01 5.500000e+00 1.750000e+02
         vertex 4.500000e+01 5.500000e+00 1.850000e+02
      endloop
   endfacet
   facet normal 1.000000e+00 0.000000e+00 0.000000e+00
      outer loop
         vertex 5.500001e+01 5.500000e+00 1.750000e+02
         vertex 5.500001e+01 6.500000e+00 1.750000e+02
         vertex 5.500001e+01 5.500000e+00 1.850000e+02
      endloop
   endfacet
   facet normal 1.000000e+00 -0.000000e+00 0.000000e+00
      outer loop
         vertex 5.500001e+01 5.500000e+00 1.850000e+02
         vertex 5.500001e+01 6.500000e+00 1.750000e+02
         vertex 5.500001e+01 6.500000e+00 1.850000e+02
      endloop
   endfacet
   facet normal 0.000000e+00 0.000000e+00 1.000000e+00
      outer loop
         vertex 1.450000e+02 6.500000e+00 9.500000e+01
         vertex 1.350000e+02 6.500000e+00 9.500000e+01
         vertex 1.450000e+02 5.500000e+00 9.500000e+01
      endloop
   endfacet
   facet normal 0.000000e+00 0.000000e+00 1.000000e+00
      outer loop
         vertex 1.450000e+02 5.500000e+00 9.500000e+01
         vertex 1.350000e+02 6.500000e+00 9.500000e+01
         vertex 1.350000e+02 5.500000e+00 9.500000e+01
      endloop
   endfacet
   facet normal 0.000000e+00 1.000000e+00 -0.000000e+00
      outer loop
         vertex 1.450000e+02 6.500000e+00 8.500001e+01
         vertex 1.350000e+02 6.500000e+00 8.500001e+01
         vertex 1.450000e+02 6.500000e+00 9.500000e+01
      endloop
   endfacet
   facet normal 0.000000e+00 1.000000e+00 0.000000e+00
      outer loop
         vertex 1.450000e+02 6.500000e+00 9.500000e+01
         vertex 1.350000e+02 6.500000e+00 8.500001e+01
         vertex 1.350000e+02 6.500000e+00 9.500000e+01
      endloop
   endfacet
   facet normal 0.000000e+00 0.000000e+00 -1.000000e+00
      outer loop
         vertex 1.450000e+02 5.500000e+00 8.500001e+01
         vertex 1.350000e+02 5.500000e+00 8.500001e+01
         vertex 1.450000e+02 6.500000e+00 8.500001e+01
      endloop
   endfacet
   facet normal -0.000000e+00 0.000000e+00 -1.000000e+00
      outer loop
         vertex 1.450000e+02 6.500000e+00 8.500001e+01
         vertex 1.350000e+02 5.500000e+00 8.500001e+01
         vertex 1.350000e+02 6.500000e+00 8.500001e+01
      endloop
   endfacet
   facet normal -0.000000e+00 -1.000000e+00 -0.000000e+00
      outer loop
         vertex 1.450000e+02 5.500000e+00 9.500000e+01
         vertex 1.350000e+02 5.500000e+00 9.500000e+01
         vertex 1.450000e+02 5.500000e+00 8.500001e+01
      endloop
   endfacet
   facet normal 0.000000e+00 -1.000000e+00 0.000000e+00
      outer loop
         vertex 1.450000e+02 5.500000e+00 8.500001e+01
         vertex 1.350000e+02 5.500000e+00 9.500000e+01
         vertex 1.350000e+02 5.500000e+00 8.500001e+01
      endloop
   endfacet
   facet normal -1.000000e+00 0.000000e+00 0.000000e+00
      outer loop
         vertex 1.350000e+02 6.500000e+00 8.500001e+01
         vertex 1.350000e+02 5.500000e+00 8.500001e+01
         vertex 1.350000e+02 6.500000e+00 9.500000e+01
      endloop
   endfacet
   facet normal -1.000000e+00 -0.000000e+00 0.000000e+00
      outer loop
         vertex 1.350000e+02 6.500000e+00 9.500000e+01
         vertex 1.350000e+02 5.500000e+00 8.500001e+01
         vertex 1.350000e+02 5.500000e+00 9.500000e+01
      endloop
   endfacet
   facet normal 1.000000e+00 0.000000e+00 0.000000e+00
      outer loop
         vertex 1.450000e+02 5.500000e+00 8.500001e+01
         vertex 1.450000e+02 6.500000e+00 8.500001e+01
         vertex 1.450000e+02 5.500000e+00 9.500000e+01
      endloop
   endfacet
   facet normal 1.000000e+00 -0.000000e+00 0.000000e+00
      outer loop
         vertex 1.450000e+02 5.500000e+00 9.500000e+01
         vertex 1.450000e+02 6.500000e+00 8.500001e+01
         vertex 1.450000e+02 6.500000e+00 9.500000e+01
      endloop
   endfacet
   facet normal 0.000000e+00 0.000000e+00 1.000000e+00
      outer loop
         vertex 1.000000e+02 6.500000e+00 1.400000e+02
         vertex 9.000000e+01 6.500000e+00 1.400000e+02
         vertex 1.000000e+02 5.500000e+00 1.400000e+02
      endloop
   endfacet
   facet normal 0.000000e+00 0.000000e+00 1.000000e+00
      outer loop
         vertex 1.000000e+02 5.500000e+00 1.400000e+02
         vertex 9.000000e+01 6.500000e+00 1.400000e+02
         vertex 9.000000e+01 5.500000e+00 1.400000e+02
      endloop
   endfacet
   facet normal 0.000000e+00 1.000000e+00 -0.000000e+00
      outer loop
         vertex 1.000000e+02 6.500000e+00 1.300000e+02
         vertex 9.000000e+01 6.500000e+00 1.300000e+02
         vertex 1.000000e+02 6.500000e+00 1.400000e+02
      endloop
   endfacet
   facet normal 0.000000e+00 1.000000e+00 0.000000e+00
      outer loop
         vertex 1.000000e+02 6.500000e+00 1.400000e+02
         vertex 9.000000e+01 6.500000e+00 1.300000e+02
         vertex 9.000000e+01 6.500000e+00 1.400000e+02
      endloop
   endfacet
   facet normal 0.000000e+00 0.000000e+00 -1.000000e+00
      outer loop
         vertex 1.000000e+02 5.500000e+00 1.300000e+02
         vertex 9.000000e+01 5.500000e+00 1.300000e+02
         vertex 1.000000e+02 6.500000e+00 1.300000e+02
      endloop
   endfacet
   facet normal -0.000000e+00 0.000000e+00 -1.000000e+00
      outer loop
         vertex 1.000000e+02 6.500000e+00 1.300000e+02
         vertex 9.000000e+01 5.500000e+00 1.300000e+02
         vertex 9.000000e+01 6.500000e+00 1.300000e+02
      endloop
   endfacet
   facet normal -0.000000e+00 -1.000000e+00 -0.000000e+00
      outer loop
         vertex 1.000000e+02 5.500000e+00 1.400000e+02
         vertex 9.000000e+01 5.500000e+00 1.400000e+02
         vertex 1.000000e+02 5.500000e+00 1.300000e+02
      endloop
   endfacet
   facet normal 0.000000e+00 -1.000000e+00 0.000000e+00
      outer loop
         vertex 1.000000e+02 5.500000e+00 1.300000e+02
         vertex 9.000000e+01 5.500000e+00 1.400000e+02
         vertex 9.000000e+01 5.500000e+00 1.300000e+02
      endloop
   endfacet
   facet normal -1.000000e+00 0.000000e+00 0.000000e+00
      outer loop
         vertex 9.000000e+01 6.500000e+00 1.300000e+02
         vertex 9.000000e+01 5.500000e+00 1.300000e+02
         vertex 9.000000e+01 6.500000e+00 1.400000e+02
      endloop
   endfacet
   facet normal -1.000000e+00 -0.000000e+00 0.000000e+00
      outer loop
         vertex 9.000000e+01 6.500000e+00 1.400000e+02
         vertex 9.000000e+01 5.500000e+00 1.300000e+02
         vertex 9.000000e+01 5.500000e+00 1.400000e+02
      endloop
   endfacet
   facet normal 1.000000e+00 0.000000e+00 0.000000e+00
      outer loop
         vertex 1.000000e+02 5.500000e+00 1.300000e+02
         vertex 1.000000e+02 6.500000e+00 1.300000e+02
         vertex 1.000000e+02 5.500000e+00 1.400000e+02
      endloop
   endfacet
   facet normal 1.000000e+00 -0.000000e+00 0.000000e+00
      outer loop
         vertex 1.000000e+02 5.500000e+00 1.400000e+02
         vertex 1.000000e+02 6.500000e+00 1.300000e+02
         vertex 1.000000e+02 6.500000e+00 1.400000e+02
      endloop
   endfacet
   facet normal 0.000000e+00 0.000000e+00 1.000000e+00
      outer loop
         vertex 5.500001e+01 6.500000e+00 3.650000e+02
         vertex 4.500000e+01 6.500000e+00 3.650000e+02
         vertex 5.500001e+01 5.500000e+00 3.650000e+02
      endloop
   endfacet
   facet normal 0.000000e+00 0.000000e+00 1.000000e+00
      outer loop
         vertex 5.500001e+01 5.500000e+00 3.650000e+02
         vertex 4.500000e+01 6.500000e+00 3.650000e+02
         vertex 4.500000e+01 5.500000e+00 3.650000e+02
      endloop
   endfacet
   facet normal 0.000000e+00 1.000000e+00 -0.000000e+00
      outer loop
         vertex 5.500001e+01 6.500000e+00 3.550000e+02
         vertex 4.500000e+01 6.500000e+00 3.550000e+02
         vertex 5.500001e+01 6.500000e+00 3.650000e+02
      endloop
   endfacet
   facet normal 0.000000e+00 1.000000e+00 0.000000e+00
      outer loop
         vertex 5.500001e+01 6.500000e+00 3.650000e+02
         vertex 4.500000e+01 6.500000e+00 3.550000e+02
         vertex 4.500000e+01 6.500000e+00 3.650000e+02
      endloop
   endfacet
   facet normal 0.000000e+00 0.000000e+00 -1.000000e+00
      outer loop
         vertex 5.500001e+01 5.500000e+00 3.550000e+02
         vertex 4.500000e+01 5.500000e+00 3.550000e+02
         vertex 5.500001e+01 6.500000e+00 3.550000e+02
      endloop
   endfacet
   facet normal -0.000000e+00 0.000000e+00 -1.000000e+00
      outer loop
         vertex 5.500001e+01 6.500000e+00 3.550000e+02
         vertex 4.500000e+01 5.500000e+00 3.550000e+02
         vertex 4.500000e+01 6.500000e+00 3.550000e+02
      endloop
   endfacet
   facet normal -0.000000e+00 -1.000000e+00 -0.000000e+00
      outer loop
         vertex 5.500001e+01 5.500000e+00 3.650000e+02
         vertex 4.500000e+01 5.500000e+00 3.650000e+02
         vertex 5.500001e+01 5.500000e+00 3.550000e+02
      endloop
   endfacet
   facet normal 0.000000e+00 -1.000000e+00 0.000000e+00
      outer loop
         vertex 5.500001e+01 5.500000e+00 3.550000e+02
         vertex 4.500000e+01 5.500000e+00 3.650000e+02
         vertex 4.500000e+01 5.500000e+00 3.550000e+02
      endloop
   endfacet
   facet normal -1.000000e+00 0.000000e+00 0.000000e+00
      outer loop
         vertex 4.500000e+01 6.500000e+00 3.550000e+02
         vertex 4.500000e+01 5.500000e+00 3.550000e+02
         vertex 4.500000e+01 6.500000e+00 3.650000e+02
      endloop
   endfacet
   facet normal -1.000000e+00 -0.000000e+00 0.000000e+00
      outer loop
         vertex 4.500000e+01 6.500000e+00 3.650000e+02
         vertex 4.500000e+01 5.500000e+00 3.550000e+02
         vertex 4.500000e+01 5.500000e+00 3.650000e+02
      endloop
   endfacet
   facet normal 1.000000e+00 0.000000e+00 0.000000e+00
      outer loop
         vertex 5.500001e+01 5.500000e+00 3.550000e+02
         vertex 5.500001e+01 6.500000e+00 3.550000e+02
         vertex 5.500001e+01 5.500000e+00 3.650000e+02
      endloop
   endfacet
   facet normal 1.000000e+00 -0.000000e+00 0.000000e+00
      outer loop
         vertex 5.500001e+01 5.500000e+00 3.650000e+02
         vertex 5.500001e+01 6.500000e+00 3.550000e+02
         vertex 5.500001e+01 6.500000e+00 3.650000e+02
      endloop
   endfacet
   facet normal 0.000000e+00 0.000000e+00 1.000000e+00
      outer loop
         vertex 1.000000e+02 6.500000e+00 3.200000e+02
         vertex 9.000000e+01 6.500000e+00 3.200000e+02
         vertex 1.000000e+02 5.500000e+00 3.200000e+02
      endloop
   endfacet
   facet normal 0.000000e+00 0.000000e+00 1.000000e+00
      outer loop
         vertex 1.000000e+02 5.500000e+00 3.200000e+02
         vertex 9.000000e+01 6.500000e+00 3.200000e+02
         vertex 9.000000e+01 5.500000e+00 3.200000e+02
      endloop
   endfacet
   facet normal 0.000000e+00 1.000000e+00 -0.000000e+00
      outer loop
         vertex 1.000000e+02 6.500000e+00 3.100000e+02
         vertex 9.000000e+01 6.500000e+00 3.100000e+02
         vertex 1.000000e+02 6.500000e+00 3.200000e+02
      endloop
   endfacet
   facet normal 0.000000e+00 1.000000e+00 0.000000e+00
      outer loop
         vertex 1.000000e+02 6.500000e+00 3.200000e+02
         vertex 9.000000e+01 6.500000e+00 3.100000e+02
         vertex 9.000000e+01 6.500000e+00 3.200000e+02
      endloop
   endfacet
   facet normal 0.000000e+00 0.000000e+00 -1.000000e+00
      outer loop
         vertex 1.000000e+02 5.500000e+00 3.100000e+02
         vertex 9.000000e+01 5.500000e+00 3.100000e+02
         vertex 1.000000e+02 6.500000e+00 3.100000e+02
      endloop
   endfacet
   facet normal -0.000000e+00 0.000000e+00 -1.000000e+00
      outer loop
         vertex 1.000000e+02 6.500000e+00 3.100000e+02
         vertex 9.000000e+01 5.500000e+00 3.100000e+02
         vertex 9.000000e+01 6.500000e+00 3.100000e+02
      endloop
   endfacet
   facet normal -0.000000e+00 -1.000000e+00 -0.000000e+00
      outer loop
         vertex 1.000000e+02 5.500000e+00 3.200000e+02
         vertex 9.000000e+01 5.500000e+00 3.200000e+02
         vertex 1.000000e+02 5.500000e+00 3.100000e+02
      endloop
   endfacet
   facet normal 0.000000e+00 -1.000000e+00 0.000000e+00
      outer loop
         vertex 1.000000e+02 5.500000e+00 3.100000e+02
         vertex 9.000000e+01 5.500000e+00 3.200000e+02
         vertex 9.000000e+01 5.500000e+00 3.100000e+02
      endloop
   endfacet
   facet normal -1.000000e+00 0.000000e+00 0.000000e+00
      outer loop
         vertex 9.000000e+01 6.500000e+00 3.100000e+02
         vertex 9.000000e+01 5.500000e+00 3.100000e+02
         vertex 9.000000e+01 6.500000e+00 3.200000e+02
      endloop
   endfacet
   facet normal -1.000000e+00 -0.000000e+00 0.000000e+00
      outer loop
         vertex 9.000000e+01 6.500000e+00 3.200000e+02
         vertex 9.000000e+01 5.500000e+00 3.100000e+02
         vertex 9.000000e+01 5.500000e+00 3.200000e+02
      endloop
   endfacet
   facet normal 1.000000e+00 0.000000e+00 0.000000e+00
      outer loop
         vertex 1.000000e+02 5.500000e+00 3.100000e+02
         vertex 1.000000e+02 6.500000e+00 3.100000e+02
         vertex 1.000000e+02 5.500000e+00 3.200000e+02
      endloop
   endfacet
   facet normal 1.000000e+00 -0.000000e+00 0.000000e+00
      outer loop
         vertex 1.000000e+02 5.500000e+00 3.200000e+02
         vertex 1.000000e+02 6.500000e+00 3.100000e+02
         vertex 1.000000e+02 6.500000e+00 3.200000e+02
      endloop
   endfacet
   facet normal 0.000000e+00 0.000000e+00 1.000000e+00
      outer loop
         vertex 1.000001e+01 6.500000e+00 3.200000e+02
         vertex 0.000000e+00 6.500000e+00 3.200000e+02
         vertex 1.000001e+01 5.500000e+00 3.200000e+02
      endloop
   endfacet
   facet normal 0.000000e+00 0.000000e+00 1.000000e+00
      outer loop
         vertex 1.000001e+01 5.500000e+00 3.200000e+02
         vertex 0.000000e+00 6.500000e+00 3.200000e+02
         vertex 0.000000e+00 5.500000e+00 3.200000e+02
      endloop
   endfacet
   facet normal 0.000000e+00 1.000000e+00 -0.000000e+00
      outer loop
         vertex 1.000001e+01 6.500000e+00 3.100000e+02
         vertex 0.000000e+00 6.500000e+00 3.100000e+02
         vertex 1.000001e+01 6.500000e+00 3.200000e+02
      endloop
   endfacet
   facet normal 0.000000e+00 1.000000e+00 0.000000e+00
      outer loop
         vertex 1.000001e+01 6.500000e+00 3.200000e+02
         vertex 0.000000e+00 6.500000e+00 3.100000e+02
         vertex 0.000000e+00 6.500000e+00 3.200000e+02
      endloop
   endfacet
   facet normal 0.000000e+00 0.000000e+00 -1.000000e+00
      outer loop
         vertex 1.000001e+01 5.500000e+00 3.100000e+02
         vertex 0.000000e+00 5.500000e+00 3.100000e+02
         vertex 1.000001e+01 6.500000e+00 3.100000e+02
      endloop
   endfacet
   facet normal -0.000000e+00 0.000000e+00 -1.000000e+00
      outer loop
         vertex 1.000001e+01 6.500000e+00 3.100000e+02
         vertex 0.000000e+00 5.500000e+00 3.100000e+02
         vertex 0.000000e+00 6.500000e+00 3.100000e+02
      endloop
   endfacet
   facet normal -0.000000e+00 -1.000000e+00 -0.000000e+00
      outer loop
         vertex 1.000001e+01 5.500000e+00 3.200000e+02
         vertex 0.000000e+00 5.500000e+00 3.200000e+02
         vertex 1.000001e+01 5.500000e+00 3.100000e+02
      endloop
   endfacet
   facet normal 0.000000e+00 -1.000000e+00 0.000000e+00
      outer loop
         vertex 1.000001e+01 5.500000e+00 3.100000e+02
         vertex 0.000000e+00 5.500000e+00 3.200000e+02
         vertex 0.000000e+00 5.500000e+00 3.100000e+02
      endloop
   endfacet
   facet normal -1.000000e+00 0.000000e+00 0.000000e+00
      outer loop
         vertex 0.000000e+00 6.500000e+00 3.100000e+02
         vertex 0.000000e+00 5.500000e+00 3.100000e+02
         vertex 0.000000e+00 6.500000e+00 3.200000e+02
      endloop
   endfacet
   facet normal -1.000000e+00 -0.000000e+00 0.000000e+00
      outer loop
         vertex 0.000000e+00 6.500000e+00 3.200000e+02
         vertex 0.000000e+00 5.500000e+00 3.100000e+02
         vertex 0.000000e+00 5.500000e+00 3.200000e+02
      endloop
   endfacet
   facet normal 1.000000e+00 0.000000e+00 0.000000e+00
      outer loop
         vertex 1.000001e+01 5.500000e+00 3.100000e+02
         vertex 1.000001e+01 6.500000e+00 3.100000e+02
         vertex 1.000001e+01 5.500000e+00 3.200000e+02
      endloop
   endfacet
   facet normal 1.000000e+00 -0.000000e+00 0.000000e+00
      outer loop
         vertex 1.000001e+01 5.500000e+00 3.200000e+02
         vertex 1.000001e+01 6.500000e+00 3.100000e+02
         vertex 1.000001e+01 6.500000e+00 3.200000e+02
      endloop
   endfacet
   facet normal 0.000000e+00 0.000000e+00 1.000000e+00
      outer loop
         vertex 1.000001e+01 6.500000e+00 4.100000e+02
         vertex 0.000000e+00 6.500000e+00 4.100000e+02
         vertex 1.000001e+01 5.500000e+00 4.100000e+02
      endloop
   endfacet
   facet normal 0.000000e+00 0.000000e+00 1.000000e+00
      outer loop
         vertex 1.000001e+01 5.500000e+00 4.100000e+02
         vertex 0.000000e+00 6.500000e+00 4.100000e+02
         vertex 0.000000e+00 5.500000e+00 4.100000e+02
      endloop
   endfacet
   facet normal 0.000000e+00 1.000000e+00 -0.000000e+00
      outer loop
         vertex 1.000001e+01 6.500000e+00 4.000000e+02
         vertex 0.000000e+00 6.500000e+00 4.000000e+02
         vertex 1.000001e+01 6.500000e+00 4.100000e+02
      endloop
   endfacet
   facet normal 0.000000e+00 1.000000e+00 0.000000e+00
      outer loop
         vertex 1.000001e+01 6.500000e+00 4.100000e+02
         vertex 0.000000e+00 6.500000e+00 4.000000e+02
         vertex 0.000000e+00 6.500000e+00 4.100000e+02
      endloop
   endfacet
   facet normal 0.000000e+00 0.000000e+00 -1.000000e+00
      outer loop
         vertex 1.000001e+01 5.500000e+00 4.000000e+02
         vertex 0.000000e+00 5.500000e+00 4.000000e+02
         vertex 1.000001e+01 6.500000e+00 4.000000e+02
      endloop
   endfacet
   facet normal -0.000000e+00 0.000000e+00 -1.000000e+00
      outer loop
         vertex 1.000001e+01 6.500000e+00 4.000000e+02
         vertex 0.000000e+00 5.500000e+00 4.000000e+02
         vertex 0.000000e+00 6.500000e+00 4.000000e+02
      endloop
   endfacet
   facet normal -0.000000e+00 -1.000000e+00 -0.000000e+00
      outer loop
         vertex 1.000001e+01 5.500000e+00 4.100000e+02
         vertex 0.000000e+00 5.500000e+00 4.100000e+02
         vertex 1.000001e+01 5.500000e+00 4.000000e+02
      endloop
   endfacet
   facet normal 0.000000e+00 -1.000000e+00 0.000000e+00
      outer loop
         vertex 1.000001e+01 5.500000e+00 4.000000e+02
         vertex 0.000000e+00 5.500000e+00 4.100000e+02
         vertex 0.000000e+00 5.500000e+00 4.000000e+02
      endloop
   endfacet
   facet normal -1.000000e+00 0.000000e+00 0.000000e+00
      outer loop
         vertex 0.000000e+00 6.500000e+00 4.000000e+02
         vertex 0.000000e+00 5.500000e+00 4.000000e+02
         vertex 0.000000e+00 6.500000e+00 4.100000e+02
      endloop
   endfacet
   facet normal -1.000000e+00 -0.000000e+00 0.000000e+00
      outer loop
         vertex 0.000000e+00 6.500000e+00 4.100000e+02
         vertex 0.000000e+00 5.500000e+00 4.000000e+02
         vertex 0.000000e+00 5.500000e+00 4.100000e+02
      endloop
   endfacet
   facet normal 1.000000e+00 0.000000e+00 0.000000e+00
      outer loop
         vertex 1.000001e+01 5.500000e+00 4.000000e+02
         vertex 1.000001e+01 6.500000e+00 4.000000e+02
         vertex 1.000001e+01 5.500000e+00 4.100000e+02
      endloop
   endfacet
   facet normal 1.000000e+00 -0.000000e+00 0.000000e+00
      outer loop
         vertex 1.000001e+01 5.500000e+00 4.100000e+02
         vertex 1.000001e+01 6.500000e+00 4.000000e+02
         vertex 1.000001e+01 6.500000e+00 4.100000e+02
      endloop
   endfacet
   facet normal 0.000000e+00 0.000000e+00 1.000000e+00
      outer loop
         vertex 1.000000e+02 6.500000e+00 4.100000e+02
         vertex 9.000000e+01 6.500000e+00 4.100000e+02
         vertex 1.000000e+02 5.500000e+00 4.100000e+02
      endloop
   endfacet
   facet normal 0.000000e+00 0.000000e+00 1.000000e+00
      outer loop
         vertex 1.000000e+02 5.500000e+00 4.100000e+02
         vertex 9.000000e+01 6.500000e+00 4.100000e+02
         vertex 9.000000e+01 5.500000e+00 4.100000e+02
      endloop
   endfacet
   facet normal 0.000000e+00 1.000000e+00 -0.000000e+00
      outer loop
         vertex 1.000000e+02 6.500000e+00 4.000000e+02
         vertex 9.000000e+01 6.500000e+00 4.000000e+02
         vertex 1.000000e+02 6.500000e+00 4.100000e+02
      endloop
   endfacet
   facet normal 0.000000e+00 1.000000e+00 0.000000e+00
      outer loop
         vertex 1.000000e+02 6.500000e+00 4.100000e+02
         vertex 9.000000e+01 6.500000e+00 4.000000e+02
         vertex 9.000000e+01 6.500000e+00 4.100000e+02
      endloop
   endfacet
   facet normal 0.000000e+00 0.000000e+00 -1.000000e+00
      outer loop
         vertex 1.000000e+02 5.500000e+00 4.000000e+02
         vertex 9.000000e+01 5.500000e+00 4.000000e+02
         vertex 1.000000e+02 6.500000e+00 4.000000e+02
      endloop
   endfacet
   facet normal -0.000000e+00 0.000000e+00 -1.000000e+00
      outer loop
         vertex 1.000000e+02 6.500000e+00 4.000000e+02
         vertex 9.000000e+01 5.500000e+00 4.000000e+02
         vertex 9.000000e+01 6.500000e+00 4.000000e+02
      endloop
   endfacet
   facet normal -0.000000e+00 -1.000000e+00 -0.000000e+00
      outer loop
         vertex 1.000000e+02 5.500000e+00 4.100000e+02
         vertex 9.000000e+01 5.500000e+00 4.100000e+02
         vertex 1.000000e+02 5.500000e+00 4.000000e+02
      endloop
   endfacet
   facet normal 0.000000e+00 -1.000000e+00 0.000000e+00
      outer loop
         vertex 1.000000e+02 5.500000e+00 4.000000e+02
         vertex 9.000000e+01 5.500000e+00 4.100000e+02
         vertex 9.000000e+01 5.500000e+00 4.000000e+02
      endloop
   endfacet
   facet normal -1.000000e+00 0.000000e+00 0.000000e+00
      outer loop
         vertex 9.000000e+01 6.500000e+00 4.000000e+02
         vertex 9.000000e+01 5.500000e+00 4.000000e+02
         vertex 9.000000e+01 6.500000e+00 4.100000e+02
      endloop
   endfacet
   facet normal -1.000000e+00 -0.000000e+00 0.000000e+00
      outer loop
         vertex 9.000000e+01 6.500000e+00 4.100000e+02
         vertex 9.000000e+01 5.500000e+00 4.000000e+02
         vertex 9.000000e+01 5.500000e+00 4.100000e+02
      endloop
   endfacet
   facet normal 1.000000e+00 0.000000e+00 0.000000e+00
      outer loop
         vertex 1.000000e+02 5.500000e+00 4.000000e+02
         vertex 1.000000e+02 6.500000e+00 4.000000e+02
         vertex 1.000000e+02 5.500000e+00 4.100000e+02
      endloop
   endfacet
   facet normal 1.000000e+00 -0.000000e+00 0.000000e+00
      outer loop
         vertex 1.000000e+02 5.500000e+00 4.100000e+02
         vertex 1.000000e+02 6.500000e+00 4.000000e+02
         vertex 1.000000e+02 6.500000e+00 4.100000e+02
      endloop
   endfacet
   facet normal 0.000000e+00 0.000000e+00 1.000000e+00
      outer loop
         vertex 3.700000e+02 6.500000e+00 4.100000e+02
         vertex 3.600000e+02 6.500000e+00 4.100000e+02
         vertex 3.700000e+02 5.500000e+00 4.100000e+02
      endloop
   endfacet
   facet normal 0.000000e+00 0.000000e+00 1.000000e+00
      outer loop
         vertex 3.700000e+02 5.500000e+00 4.100000e+02
         vertex 3.600000e+02 6.500000e+00 4.100000e+02
         vertex 3.600000e+02 5.500000e+00 4.100000e+02
      endloop
   endfacet
   facet normal 0.000000e+00 1.000000e+00 -0.000000e+00
      outer loop
         vertex 3.700000e+02 6.500000e+00 4.000000e+02
         vertex 3.600000e+02 6.500000e+00 4.000000e+02
         vertex 3.700000e+02 6.500000e+00 4.100000e+02
      endloop
   endfacet
   facet normal 0.000000e+00 1.000000e+00 0.000000e+00
      outer loop
         vertex 3.700000e+02 6.500000e+00 4.100000e+02
         vertex 3.600000e+02 6.500000e+00 4.000000e+02
         vertex 3.600000e+02 6.500000e+00 4.100000e+02
      endloop
   endfacet
   facet normal 0.000000e+00 0.000000e+00 -1.000000e+00
      outer loop
         vertex 3.700000e+02 5.500000e+00 4.000000e+02
         vertex 3.600000e+02 5.500000e+00 4.000000e+02
         vertex 3.700000e+02 6.500000e+00 4.000000e+02
      endloop
   endfacet
   facet normal -0.000000e+00 0.000000e+00 -1.000000e+00
      outer loop
         vertex 3.700000e+02 6.500000e+00 4.000000e+02
         vertex 3.600000e+02 5.500000e+00 4.000000e+02
         vertex 3.600000e+02 6.500000e+00 4.000000e+02
      endloop
   endfacet
   facet normal -0.000000e+00 -1.000000e+00 -0.000000e+00
      outer loop
         vertex 3.700000e+02 5.500000e+00 4.100000e+02
         vertex 3.600000e+02 5.500000e+00 4.100000e+02
         vertex 3.700000e+02 5.500000e+00 4.000000e+02
      endloop
   endfacet
   facet normal 0.000000e+00 -1.000000e+00 0.000000e+00
      outer loop
         vertex 3.700000e+02 5.500000e+00 4.000000e+02
         vertex 3.600000e+02 5.500000e+00 4.100000e+02
         vertex 3.600000e+02 5.500000e+00 4.000000e+02
      endloop
   endfacet
   facet normal -1.000000e+00 0.000000e+00 0.000000e+00
      outer loop
         vertex 3.600000e+02 6.500000e+00 4.000000e+02
         vertex 3.600000e+02 5.500000e+00 4.000000e+02
         vertex 3.600000e+02 6.500000e+00 4.100000e+02
      endloop
   endfacet
   facet normal -1.000000e+00 -0.000000e+00 0.000000e+00
      outer loop
         vertex 3.600000e+02 6.500000e+00 4.100000e+02
         vertex 3.600000e+02 5.500000e+00 4.000000e+02
         vertex 3.600000e+02 5.500000e+00 4.100000e+02
      endloop
   endfacet
   facet normal 1.000000e+00 0.000000e+00 0.000000e+00
      outer loop
         vertex 3.700000e+02 5.500000e+00 4.000000e+02
         vertex 3.700000e+02 6.500000e+00 4.000000e+02
         vertex 3.700000e+02 5.500000e+00 4.100000e+02
      endloop
   endfacet
   facet normal 1.000000e+00 -0.000000e+00 0.000000e+00
      outer loop
         vertex 3.700000e+02 5.500000e+00 4.100000e+02
         vertex 3.700000e+02 6.500000e+00 4.000000e+02
         vertex 3.700000e+02 6.500000e+00 4.100000e+02
      endloop
   endfacet
   facet normal 0.000000e+00 0.000000e+00 1.000000e+00
      outer loop
         vertex 4.600000e+02 6.500000e+00 4.100000e+02
         vertex 4.500000e+02 6.500000e+00 4.100000e+02
         vertex 4.600000e+02 5.500000e+00 4.100000e+02
      endloop
   endfacet
   facet normal 0.000000e+00 0.000000e+00 1.000000e+00
      outer loop
         vertex 4.600000e+02 5.500000e+00 4.100000e+02
         vertex 4.500000e+02 6.500000e+00 4.100000e+02
         vertex 4.500000e+02 5.500000e+00 4.100000e+02
      endloop
   endfacet
   facet normal 0.000000e+00 1.000000e+00 -0.000000e+00
      outer loop
         vertex 4.600000e+02 6.500000e+00 4.000000e+02
         vertex 4.500000e+02 6.500000e+00 4.000000e+02
         vertex 4.600000e+02 6.500000e+00 4.100000e+02
      endloop
   endfacet
   facet normal 0.000000e+00 1.000000e+00 0.000000e+00
      outer loop
         vertex 4.600000e+02 6.500000e+00 4.100000e+02
         vertex 4.500000e+02 6.500000e+00 4.000000e+02
         vertex 4.500000e+02 6.500000e+00 4.100000e+02
      endloop
   endfacet
   facet normal 0.000000e+00 0.000000e+00 -1.000000e+00
      outer loop
         vertex 4.600000e+02 5.500000e+00 4.000000e+02
         vertex 4.500000e+02 5.500000e+00 4.000000e+02
         vertex 4.600000e+02 6.500000e+00 4.000000e+02
      endloop
   endfacet
   facet normal -0.000000e+00 0.000000e+00 -1.000000e+00
      outer loop
         vertex 4.600000e+02 6.500000e+00 4.000000e+02
         vertex 4.500000e+02 5.500000e+00 4.000000e+02
         vertex 4.500000e+02 6.500000e+00 4.000000e+02
      endloop
   endfacet
   facet normal -0.000000e+00 -1.000000e+00 -0.000000e+00
      outer loop
         vertex 4.600000e+02 5.500000e+00 4.100000e+02
         vertex 4.500000e+02 5.500000e+00 4.100000e+02
         vertex 4.600000e+02 5.500000e+00 4.000000e+02
      endloop
   endfacet
   facet normal 0.000000e+00 -1.000000e+00 0.000000e+00
      outer loop
         vertex 4.600000e+02 5.500000e+00 4.000000e+02
         vertex 4.500000e+02 5.500000e+00 4.100000e+02
         vertex 4.500000e+02 5.500000e+00 4.000000e+02
      endloop
   endfacet
   facet normal -1.000000e+00 0.000000e+00 0.000000e+00
      outer loop
         vertex 4.500000e+02 6.500000e+00 4.000000e+02
         vertex 4.500000e+02 5.500000e+00 4.000000e+02
         vertex 4.500000e+02 6.500000e+00 4.100000e+02
      endloop
   endfacet
   facet normal -1.000000e+00 -0.000000e+00 0.000000e+00
      outer loop
         vertex 4.500000e+02 6.500000e+00 4.100000e+02
         vertex 4.500000e+02 5.500000e+00 4.000000e+02
         vertex 4.500000e+02 5.500000e+00 4.100000e+02
      endloop
   endfacet
   facet normal 1.000000e+00 0.000000e+00 0.000000e+00
      outer loop
         vertex 4.600000e+02 5.500000e+00 4.000000e+02
         vertex 4.600000e+02 6.500000e+00 4.000000e+02
         vertex 4.600000e+02 5.500000e+00 4.100000e+02
      endloop
   endfacet
   facet normal 1.000000e+00 -0.000000e+00 0.000000e+00
      outer loop
         vertex 4.600000e+02 5.500000e+00 4.100000e+02
         vertex 4.600000e+02 6.500000e+00 4.000000e+02
         vertex 4.600000e+02 6.500000e+00 4.100000e+02
      endloop
   endfacet
   facet normal 0.000000e+00 0.000000e+00 1.000000e+00
      outer loop
         vertex 4.600000e+02 6.500000e+00 3.200000e+02
         vertex 4.500000e+02 6.500000e+00 3.200000e+02
         vertex 4.600000e+02 5.500000e+00 3.200000e+02
      endloop
   endfacet
   facet normal 0.000000e+00 0.000000e+00 1.000000e+00
      outer loop
         vertex 4.600000e+02 5.500000e+00 3.200000e+02
         vertex 4.500000e+02 6.500000e+00 3.200000e+02
         vertex 4.500000e+02 5.500000e+00 3.200000e+02
      endloop
   endfacet
   facet normal 0.000000e+00 1.000000e+00 -0.000000e+00
      outer loop
         vertex 4.600000e+02 6.500000e+00 3.100000e+02
         vertex 4.500000e+02 6.500000e+00 3.100000e+02
         vertex 4.600000e+02 6.500000e+00 3.200000e+02
      endloop
   endfacet
   facet normal 0.000000e+00 1.000000e+00 0.000000e+00
      outer loop
         vertex 4.600000e+02 6.500000e+00 3.200000e+02
         vertex 4.500000e+02 6.500000e+00 3.100000e+02
         vertex 4.500000e+02 6.500000e+00 3.200000e+02
      endloop
   endfacet
   facet normal 0.000000e+00 0.000000e+00 -1.000000e+00
      outer loop
         vertex 4.600000e+02 5.500000e+00 3.100000e+02
         vertex 4.500000e+02 5.500000e+00 3.100000e+02
         vertex 4.600000e+02 6.500000e+00 3.100000e+02
      endloop
   endfacet
   facet normal -0.000000e+00 0.000000e+00 -1.000000e+00
      outer loop
         vertex 4.600000e+02 6.500000e+00 3.100000e+02
         vertex 4.500000e+02 5.500000e+00 3.100000e+02
         vertex 4.500000e+02 6.500000e+00 3.100000e+02
      endloop
   endfacet
   facet normal -0.000000e+00 -1.000000e+00 -0.000000e+00
      outer loop
         vertex 4.600000e+02 5.500000e+00 3.200000e+02
         vertex 4.500000e+02 5.500000e+00 3.200000e+02
         vertex 4.600000e+02 5.500000e+00 3.100000e+02
      endloop
   endfacet
   facet normal 0.000000e+00 -1.000000e+00 0.000000e+00
      outer loop
         vertex 4.600000e+02 5.500000e+00 3.100000e+02
         vertex 4.500000e+02 5.500000e+00 3.200000e+02
         vertex 4.500000e+02 5.500000e+00 3.100000e+02
      endloop
   endfacet
   facet normal -1.000000e+00 0.000000e+00 0.000000e+00
      outer loop
         vertex 4.500000e+02 6.500000e+00 3.100000e+02
         vertex 4.500000e+02 5.500000e+00 3.100000e+02
         vertex 4.500000e+02 6.500000e+00 3.200000e+02
      endloop
   endfacet
   facet normal -1.000000e+00 -0.000000e+00 0.000000e+00
      outer loop
         vertex 4.500000e+02 6.500000e+00 3.200000e+02
         vertex 4.500000e+02 5.500000e+00 3.100000e+02
         vertex 4.500000e+02 5.500000e+00 3.200000e+02
      endloop
   endfacet
   facet normal 1.000000e+00 0.000000e+00 0.000000e+00
      outer loop
         vertex 4.600000e+02 5.500000e+00 3.100000e+02
         vertex 4.600000e+02 6.500000e+00 3.100000e+02
         vertex 4.600000e+02 5.500000e+00 3.200000e+02
      endloop
   endfacet
   facet normal 1.000000e+00 -0.000000e+00 0.000000e+00
      outer loop
         vertex 4.600000e+02 5.500000e+00 3.200000e+02
         vertex 4.600000e+02 6.500000e+00 3.100000e+02
         vertex 4.600000e+02 6.500000e+00 3.200000e+02
      endloop
   endfacet
   facet normal 0.000000e+00 0.000000e+00 1.000000e+00
      outer loop
         vertex 3.700000e+02 6.500000e+00 3.200000e+02
         vertex 3.600000e+02 6.500000e+00 3.200000e+02
         vertex 3.700000e+02 5.500000e+00 3.200000e+02
      endloop
   endfacet
   facet normal 0.000000e+00 0.000000e+00 1.000000e+00
      outer loop
         vertex 3.700000e+02 5.500000e+00 3.200000e+02
         vertex 3.600000e+02 6.500000e+00 3.200000e+02
         vertex 3.600000e+02 5.500000e+00 3.200000e+02
      endloop
   endfacet
   facet normal 0.000000e+00 1.000000e+00 -0.000000e+00
      outer loop
         vertex 3.700000e+02 6.500000e+00 3.100000e+02
         vertex 3.600000e+02 6.500000e+00 3.100000e+02
         vertex 3.700000e+02 6.500000e+00 3.200000e+02
      endloop
   endfacet
   facet normal 0.000000e+00 1.000000e+00 0.000000e+00
      outer loop
         vertex 3.700000e+02 6.500000e+00 3.200000e+02
         vertex 3.600000e+02 6.500000e+00 3.100000e+02
         vertex 3.600000e+02 6.500000e+00 3.200000e+02
      endloop
   endfacet
   facet normal 0.000000e+00 0.000000e+00 -1.000000e+00
      outer loop
         vertex 3.700000e+02 5.500000e+00 3.100000e+02
         vertex 3.600000e+02 5.500000e+00 3.100000e+02
         vertex 3.700000e+02 6.500000e+00 3.100000e+02
      endloop
   endfacet
   facet normal -0.000000e+00 0.000000e+00 -1.000000e+00
      outer loop
         vertex 3.700000e+02 6.500000e+00 3.100000e+02
         vertex 3.600000e+02 5.500000e+00 3.100000e+02
         vertex 3.600000e+02 6.500000e+00 3.100000e+02
      endloop
   endfacet
   facet normal -0.000000e+00 -1.000000e+00 -0.000000e+00
      outer loop
         vertex 3.700000e+02 5.500000e+00 3.200000e+02
         vertex 3.600000e+02 5.500000e+00 3.200000e+02
         vertex 3.700000e+02 5.500000e+00 3.100000e+02
      endloop
   endfacet
   facet normal 0.000000e+00 -1.000000e+00 0.000000e+00
      outer loop
         vertex 3.700000e+02 5.500000e+00 3.100000e+02
         vertex 3.600000e+02 5.500000e+00 3.200000e+02
         vertex 3.600000e+02 5.500000e+00 3.100000e+02
      endloop
   endfacet
   facet normal -1.000000e+00 0.000000e+00 0.000000e+00
      outer loop
         vertex 3.600000e+02 6.500000e+00 3.100000e+02
         vertex 3.600000e+02 5.500000e+00 3.100000e+02
         vertex 3.600000e+02 6.500000e+00 3.200000e+02
      endloop
   endfacet
   facet normal -1.000000e+00 -0.000000e+00 0.000000e+00
      outer loop
         vertex 3.600000e+02 6.500000e+00 3.200000e+02
         vertex 3.600000e+02 5.500000e+00 3.100000e+02
         vertex 3.600000e+02 5.500000e+00 3.200000e+02
      endloop
   endfacet
   facet normal 1.000000e+00 0.000000e+00 0.000000e+00
      outer loop
         vertex 3.700000e+02 5.500000e+00 3.100000e+02
         vertex 3.700000e+02 6.500000e+00 3.100000e+02
         vertex 3.700000e+02 5.500000e+00 3.200000e+02
      endloop
   endfacet
   facet normal 1.000000e+00 -0.000000e+00 0.000000e+00
      outer loop
         vertex 3.700000e+02 5.500000e+00 3.200000e+02
         vertex 3.700000e+02 6.500000e+00 3.100000e+02
         vertex 3.700000e+02 6.500000e+00 3.200000e+02
      endloop
   endfacet
   facet normal 0.000000e+00 0.000000e+00 1.000000e+00
      outer loop
         vertex 4.150000e+02 6.500000e+00 3.650000e+02
         vertex 4.050000e+02 6.500000e+00 3.650000e+02
         vertex 4.150000e+02 5.500000e+00 3.650000e+02
      endloop
   endfacet
   facet normal 0.000000e+00 0.000000e+00 1.000000e+00
      outer loop
         vertex 4.150000e+02 5.500000e+00 3.650000e+02
         vertex 4.050000e+02 6.500000e+00 3.650000e+02
         vertex 4.050000e+02 5.500000e+00 3.650000e+02
      endloop
   endfacet
   facet normal 0.000000e+00 1.000000e+00 -0.000000e+00
      outer loop
         vertex 4.150000e+02 6.500000e+00 3.550000e+02
         vertex 4.050000e+02 6.500000e+00 3.550000e+02
         vertex 4.150000e+02 6.500000e+00 3.650000e+02
      endloop
   endfacet
   facet normal 0.000000e+00 1.000000e+00 0.000000e+00
      outer loop
         vertex 4.150000e+02 6.500000e+00 3.650000e+02
         vertex 4.050000e+02 6.500000e+00 3.550000e+02
         vertex 4.050000e+02 6.500000e+00 3.650000e+02
      endloop
   endfacet
   facet normal 0.000000e+00 0.000000e+00 -1.000000e+00
      outer loop
         vertex 4.150000e+02 5.500000e+00 3.550000e+02
         vertex 4.050000e+02 5.500000e+00 3.550000e+02
         vertex 4.150000e+02 6.500000e+00 3.550000e+02
      endloop
   endfacet
   facet normal -0.000000e+00 0.000000e+00 -1.000000e+00
      outer loop
         vertex 4.150000e+02 6.500000e+00 3.550000e+02
         vertex 4.050000e+02 5.500000e+00 3.550000e+02
         vertex 4.050000e+02 6.500000e+00 3.550000e+02
      endloop
   endfacet
   facet normal -0.000000e+00 -1.000000e+00 -0.000000e+00
      outer loop
         vertex 4.150000e+02 5.500000e+00 3.650000e+02
         vertex 4.050000e+02 5.500000e+00 3.650000e+02
         vertex 4.150000e+02 5.500000e+00 3.550000e+02
      endloop
   endfacet
   facet normal 0.000000e+00 -1.000000e+00 0.000000e+00
      outer loop
         vertex 4.150000e+02 5.500000e+00 3.550000e+02
         vertex 4.050000e+02 5.500000e+00 3.650000e+02
         vertex 4.050000e+02 5.500000e+00 3.550000e+02
      endloop
   endfacet
   facet normal -1.000000e+00 0.000000e+00 0.000000e+00
      outer loop
         vertex 4.050000e+02 6.500000e+00 3.550000e+02
         vertex 4.050000e+02 5.500000e+00 3.550000e+02
         vertex 4.050000e+02 6.500000e+00 3.650000e+02
      endloop
   endfacet
   facet normal -1.000000e+00 -0.000000e+00 0.000000e+00
      outer loop
         vertex 4.050000e+02 6.500000e+00 3.650000e+02
         vertex 4.050000e+02 5.500000e+00 3.550000e+02
         vertex 4.050000e+02 5.500000e+00 3.650000e+02
      endloop
   endfacet
   facet normal 1.000000e+00 0.000000e+00 0.000000e+00
      outer loop
         vertex 4.150000e+02 5.500000e+00 3.550000e+02
         vertex 4.150000e+02 6.500000e+00 3.550000e+02
         vertex 4.150000e+02 5.500000e+00 3.650000e+02
      endloop
   endfacet
   facet normal 1.000000e+00 -0.000000e+00 0.000000e+00
      outer loop
         vertex 4.150000e+02 5.500000e+00 3.650000e+02
         vertex 4.150000e+02 6.500000e+00 3.550000e+02
         vertex 4.150000e+02 6.500000e+00 3.650000e+02
      endloop
   endfacet
endsolid