solid Bolts_square
   facet normal 0.000000e+00 0.000000e+00 1.000000e+00
      outer loop
         vertex 3.660000e+02 8.500000e+00 1.380000e+02
         vertex 3.600000e+02 8.500000e+00 1.380000e+02
         vertex 3.660000e+02 5.500000e+00 1.380000e+02
      endloop
   endfacet
   facet normal 0.000000e+00 0.000000e+00 1.000000e+00
      outer loop
         vertex 3.660000e+02 5.500000e+00 1.380000e+02
         vertex 3.600000e+02 8.500000e+00 1.380000e+02
         vertex 3.600000e+02 5.500000e+00 1.380000e+02
      endloop
   endfacet
   facet normal 0.000000e+00 1.000000e+00 -0.000000e+00
      outer loop
         vertex 3.660000e+02 8.500000e+00 1.320000e+02
         vertex 3.600000e+02 8.500000e+00 1.320000e+02
         vertex 3.660000e+02 8.500000e+00 1.380000e+02
      endloop
   endfacet
   facet normal 0.000000e+00 1.000000e+00 0.000000e+00
      outer loop
         vertex 3.660000e+02 8.500000e+00 1.380000e+02
         vertex 3.600000e+02 8.500000e+00 1.320000e+02
         vertex 3.600000e+02 8.500000e+00 1.380000e+02
      endloop
   endfacet
   facet normal 0.000000e+00 0.000000e+00 -1.000000e+00
      outer loop
         vertex 3.660000e+02 5.500000e+00 1.320000e+02
         vertex 3.600000e+02 5.500000e+00 1.320000e+02
         vertex 3.660000e+02 8.500000e+00 1.320000e+02
      endloop
   endfacet
   facet normal -0.000000e+00 0.000000e+00 -1.000000e+00
      outer loop
         vertex 3.660000e+02 8.500000e+00 1.320000e+02
         vertex 3.600000e+02 5.500000e+00 1.320000e+02
         vertex 3.600000e+02 8.500000e+00 1.320000e+02
      endloop
   endfacet
   facet normal -0.000000e+00 -1.000000e+00 -0.000000e+00
      outer loop
         vertex 3.660000e+02 5.500000e+00 1.380000e+02
         vertex 3.600000e+02 5.500000e+00 1.380000e+02
         vertex 3.660000e+02 5.500000e+00 1.320000e+02
      endloop
   endfacet
   facet normal 0.000000e+00 -1.000000e+00 0.000000e+00
      outer loop
         vertex 3.660000e+02 5.500000e+00 1.320000e+02
         vertex 3.600000e+02 5.500000e+00 1.380000e+02
         vertex 3.600000e+02 5.500000e+00 1.320000e+02
      endloop
   endfacet
   facet normal -1.000000e+00 0.000000e+00 0.000000e+00
      outer loop
         vertex 3.600000e+02 8.500000e+00 1.320000e+02
         vertex 3.600000e+02 5.500000e+00 1.320000e+02
         vertex 3.600000e+02 8.500000e+00 1.380000e+02
      endloop
   endfacet
   facet normal -1.000000e+00 -0.000000e+00 0.000000e+00
      outer loop
         vertex 3.600000e+02 8.500000e+00 1.380000e+02
         vertex 3.600000e+02 5.500000e+00 1.320000e+02
         vertex 3.600000e+02 5.500000e+00 1.380000e+02
      endloop
   endfacet
   facet normal 1.000000e+00 0.000000e+00 0.000000e+00
      outer loop
         vertex 3.660000e+02 5.500000e+00 1.320000e+02
         vertex 3.660000e+02 8.500000e+00 1.320000e+02
         vertex 3.660000e+02 5.500000e+00 1.380000e+02
      endloop
   endfacet
   facet normal 1.000000e+00 -0.000000e+00 0.000000e+00
      outer loop
         vertex 3.660000e+02 5.500000e+00 1.380000e+02
         vertex 3.660000e+02 8.500000e+00 1.320000e+02
         vertex 3.660000e+02 8.500000e+00 1.380000e+02
      endloop
   endfacet
   facet normal 0.000000e+00 0.000000e+00 1.000000e+00
      outer loop
         vertex 3.660000e+02 8.500000e+00 1.380000e+02
         vertex 3.600000e+02 8.500000e+00 1.380000e+02
         vertex 3.660000e+02 5.500000e+00 1.380000e+02
      endloop
   endfacet
   facet normal 0.000000e+00 0.000000e+00 1.000000e+00
      outer loop
         vertex 3.660000e+02 5.500000e+00 1.380000e+02
         vertex 3.600000e+02 8.500000e+00 1.380000e+02
         vertex 3.600000e+02 5.500000e+00 1.380000e+02
      endloop
   endfacet
   facet normal 0.000000e+00 1.000000e+00 -0.000000e+00
      outer loop
         vertex 3.660000e+02 8.500000e+00 1.320000e+02
         vertex 3.600000e+02 8.500000e+00 1.320000e+02
         vertex 3.660000e+02 8.500000e+00 1.380000e+02
      endloop
   endfacet
   facet normal 0.000000e+00 1.000000e+00 0.000000e+00
      outer loop
         vertex 3.660000e+02 8.500000e+00 1.380000e+02
         vertex 3.600000e+02 8.500000e+00 1.320000e+02
         vertex 3.600000e+02 8.500000e+00 1.380000e+02
      endloop
   endfacet
   facet normal 0.000000e+00 0.000000e+00 -1.000000e+00
      outer loop
         vertex 3.660000e+02 5.500000e+00 1.320000e+02
         vertex 3.600000e+02 5.500000e+00 1.320000e+02
         vertex 3.660000e+02 8.500000e+00 1.320000e+02
      endloop
   endfacet
   facet normal -0.000000e+00 0.000000e+00 -1.000000e+00
      outer loop
         vertex 3.660000e+02 8.500000e+00 1.320000e+02
         vertex 3.600000e+02 5.500000e+00 1.320000e+02
         vertex 3.600000e+02 8.500000e+00 1.320000e+02
      endloop
   endfacet
   facet normal -0.000000e+00 -1.000000e+00 -0.000000e+00
      outer loop
         vertex 3.660000e+02 5.500000e+00 1.380000e+02
         vertex 3.600000e+02 5.500000e+00 1.380000e+02
         vertex 3.660000e+02 5.500000e+00 1.320000e+02
      endloop
   endfacet
   facet normal 0.000000e+00 -1.000000e+00 0.000000e+00
      outer loop
         vertex 3.660000e+02 5.500000e+00 1.320000e+02
         vertex 3.600000e+02 5.500000e+00 1.380000e+02
         vertex 3.600000e+02 5.500000e+00 1.320000e+02
      endloop
   endfacet
   facet normal -1.000000e+00 0.000000e+00 0.000000e+00
      outer loop
         vertex 3.600000e+02 8.500000e+00 1.320000e+02
         vertex 3.600000e+02 5.500000e+00 1.320000e+02
         vertex 3.600000e+02 8.500000e+00 1.380000e+02
      endloop
   endfacet
   facet normal -1.000000e+00 -0.000000e+00 0.000000e+00
      outer loop
         vertex 3.600000e+02 8.500000e+00 1.380000e+02
         vertex 3.600000e+02 5.500000e+00 1.320000e+02
         vertex 3.600000e+02 5.500000e+00 1.380000e+02
      endloop
   endfacet
   facet normal 1.000000e+00 0.000000e+00 0.000000e+00
      outer loop
         vertex 3.660000e+02 5.500000e+00 1.320000e+02
         vertex 3.660000e+02 8.500000e+00 1.320000e+02
         vertex 3.660000e+02 5.500000e+00 1.380000e+02
      endloop
   endfacet
   facet normal 1.000000e+00 -0.000000e+00 0.000000e+00
      outer loop
         vertex 3.660000e+02 5.500000e+00 1.380000e+02
         vertex 3.660000e+02 8.500000e+00 1.320000e+02
         vertex 3.660000e+02 8.500000e+00 1.380000e+02
      endloop
   endfacet
   facet normal 0.000000e+00 0.000000e+00 1.000000e+00
      outer loop
         vertex 3.210000e+02 8.500000e+00 9.300001e+01
         vertex 3.150000e+02 8.500000e+00 9.300001e+01
         vertex 3.210000e+02 5.500000e+00 9.300001e+01
      endloop
   endfacet
   facet normal 0.000000e+00 0.000000e+00 1.000000e+00
      outer loop
         vertex 3.210000e+02 5.500000e+00 9.300001e+01
         vertex 3.150000e+02 8.500000e+00 9.300001e+01
         vertex 3.150000e+02 5.500000e+00 9.300001e+01
      endloop
   endfacet
   facet normal 0.000000e+00 1.000000e+00 -0.000000e+00
      outer loop
         vertex 3.210000e+02 8.500000e+00 8.700000e+01
         vertex 3.150000e+02 8.500000e+00 8.700000e+01
         vertex 3.210000e+02 8.500000e+00 9.300001e+01
      endloop
   endfacet
   facet normal 0.000000e+00 1.000000e+00 0.000000e+00
      outer loop
         vertex 3.210000e+02 8.500000e+00 9.300001e+01
         vertex 3.150000e+02 8.500000e+00 8.700000e+01
         vertex 3.150000e+02 8.500000e+00 9.300001e+01
      endloop
   endfacet
   facet normal 0.000000e+00 0.000000e+00 -1.000000e+00
      outer loop
         vertex 3.210000e+02 5.500000e+00 8.700000e+01
         vertex 3.150000e+02 5.500000e+00 8.700000e+01
         vertex 3.210000e+02 8.500000e+00 8.700000e+01
      endloop
   endfacet
   facet normal -0.000000e+00 0.000000e+00 -1.000000e+00
      outer loop
         vertex 3.210000e+02 8.500000e+00 8.700000e+01
         vertex 3.150000e+02 5.500000e+00 8.700000e+01
         vertex 3.150000e+02 8.500000e+00 8.700000e+01
      endloop
   endfacet
   facet normal -0.000000e+00 -1.000000e+00 -0.000000e+00
      outer loop
         vertex 3.210000e+02 5.500000e+00 9.300001e+01
         vertex 3.150000e+02 5.500000e+00 9.300001e+01
         vertex 3.210000e+02 5.500000e+00 8.700000e+01
      endloop
   endfacet
   facet normal 0.000000e+00 -1.000000e+00 0.000000e+00
      outer loop
         vertex 3.210000e+02 5.500000e+00 8.700000e+01
         vertex 3.150000e+02 5.500000e+00 9.300001e+01
         vertex 3.150000e+02 5.500000e+00 8.700000e+01
      endloop
   endfacet
   facet normal -1.000000e+00 0.000000e+00 0.000000e+00
      outer loop
         vertex 3.150000e+02 8.500000e+00 8.700000e+01
         vertex 3.150000e+02 5.500000e+00 8.700000e+01
         vertex 3.150000e+02 8.500000e+00 9.300001e+01
      endloop
   endfacet
   facet normal -1.000000e+00 -0.000000e+00 0.000000e+00
      outer loop
         vertex 3.150000e+02 8.500000e+00 9.300001e+01
         vertex 3.150000e+02 5.500000e+00 8.700000e+01
         vertex 3.150000e+02 5.500000e+00 9.300001e+01
      endloop
   endfacet
   facet normal 1.000000e+00 0.000000e+00 0.000000e+00
      outer loop
         vertex 3.210000e+02 5.500000e+00 8.700000e+01
         vertex 3.210000e+02 8.500000e+00 8.700000e+01
         vertex 3.210000e+02 5.500000e+00 9.300001e+01
      endloop
   endfacet
   facet normal 1.000000e+00 -0.000000e+00 0.000000e+00
      outer loop
         vertex 3.210000e+02 5.500000e+00 9.300001e+01
         vertex 3.210000e+02 8.500000e+00 8.700000e+01
         vertex 3.210000e+02 8.500000e+00 9.300001e+01
      endloop
   endfacet
   facet normal 0.000000e+00 0.000000e+00 1.000000e+00
      outer loop
         vertex 4.110000e+02 8.500000e+00 1.830000e+02
         vertex 4.050000e+02 8.500000e+00 1.830000e+02
         vertex 4.110000e+02 5.500000e+00 1.830000e+02
      endloop
   endfacet
   facet normal 0.000000e+00 0.000000e+00 1.000000e+00
      outer loop
         vertex 4.110000e+02 5.500000e+00 1.830000e+02
         vertex 4.050000e+02 8.500000e+00 1.830000e+02
         vertex 4.050000e+02 5.500000e+00 1.830000e+02
      endloop
   endfacet
   facet normal 0.000000e+00 1.000000e+00 -0.000000e+00
      outer loop
         vertex 4.110000e+02 8.500000e+00 1.770000e+02
         vertex 4.050000e+02 8.500000e+00 1.770000e+02
         vertex 4.110000e+02 8.500000e+00 1.830000e+02
      endloop
   endfacet
   facet normal 0.000000e+00 1.000000e+00 0.000000e+00
      outer loop
         vertex 4.110000e+02 8.500000e+00 1.830000e+02
         vertex 4.050000e+02 8.500000e+00 1.770000e+02
         vertex 4.050000e+02 8.500000e+00 1.830000e+02
      endloop
   endfacet
   facet normal 0.000000e+00 0.000000e+00 -1.000000e+00
      outer loop
         vertex 4.110000e+02 5.500000e+00 1.770000e+02
         vertex 4.050000e+02 5.500000e+00 1.770000e+02
         vertex 4.110000e+02 8.500000e+00 1.770000e+02
      endloop
   endfacet
   facet normal -0.000000e+00 0.000000e+00 -1.000000e+00
      outer loop
         vertex 4.110000e+02 8.500000e+00 1.770000e+02
         vertex 4.050000e+02 5.500000e+00 1.770000e+02
         vertex 4.050000e+02 8.500000e+00 1.770000e+02
      endloop
   endfacet
   facet normal -0.000000e+00 -1.000000e+00 -0.000000e+00
      outer loop
         vertex 4.110000e+02 5.500000e+00 1.830000e+02
         vertex 4.050000e+02 5.500000e+00 1.830000e+02
         vertex 4.110000e+02 5.500000e+00 1.770000e+02
      endloop
   endfacet
   facet normal 0.000000e+00 -1.000000e+00 0.000000e+00
      outer loop
         vertex 4.110000e+02 5.500000e+00 1.770000e+02
         vertex 4.050000e+02 5.500000e+00 1.830000e+02
         vertex 4.050000e+02 5.500000e+00 1.770000e+02
      endloop
   endfacet
   facet normal -1.000000e+00 0.000000e+00 0.000000e+00
      outer loop
         vertex 4.050000e+02 8.500000e+00 1.770000e+02
         vertex 4.050000e+02 5.500000e+00 1.770000e+02
         vertex 4.050000e+02 8.500000e+00 1.830000e+02
      endloop
   endfacet
   facet normal -1.000000e+00 -0.000000e+00 0.000000e+00
      outer loop
         vertex 4.050000e+02 8.500000e+00 1.830000e+02
         vertex 4.050000e+02 5.500000e+00 1.770000e+02
         vertex 4.050000e+02 5.500000e+00 1.830000e+02
      endloop
   endfacet
   facet normal 1.000000e+00 0.000000e+00 0.000000e+00
      outer loop
         vertex 4.110000e+02 5.500000e+00 1.770000e+02
         vertex 4.110000e+02 8.500000e+00 1.770000e+02
         vertex 4.110000e+02 5.500000e+00 1.830000e+02
      endloop
   endfacet
   facet normal 1.000000e+00 -0.000000e+00 0.000000e+00
      outer loop
         vertex 4.110000e+02 5.500000e+00 1.830000e+02
         vertex 4.110000e+02 8.500000e+00 1.770000e+02
         vertex 4.110000e+02 8.500000e+00 1.830000e+02
      endloop
   endfacet
   facet normal 0.000000e+00 0.000000e+00 1.000000e+00
      outer loop
         vertex 4.560000e+02 8.500000e+00 1.380000e+02
         vertex 4.500000e+02 8.500000e+00 1.380000e+02
         vertex 4.560000e+02 5.500000e+00 1.380000e+02
      endloop
   endfacet
   facet normal 0.000000e+00 0.000000e+00 1.000000e+00
      outer loop
         vertex 4.560000e+02 5.500000e+00 1.380000e+02
         vertex 4.500000e+02 8.500000e+00 1.380000e+02
         vertex 4.500000e+02 5.500000e+00 1.380000e+02
      endloop
   endfacet
   facet normal 0.000000e+00 1.000000e+00 -0.000000e+00
      outer loop
         vertex 4.560000e+02 8.500000e+00 1.320000e+02
         vertex 4.500000e+02 8.500000e+00 1.320000e+02
         vertex 4.560000e+02 8.500000e+00 1.380000e+02
      endloop
   endfacet
   facet normal 0.000000e+00 1.000000e+00 0.000000e+00
      outer loop
         vertex 4.560000e+02 8.500000e+00 1.380000e+02
         vertex 4.500000e+02 8.500000e+00 1.320000e+02
         vertex 4.500000e+02 8.500000e+00 1.380000e+02
      endloop
   endfacet
   facet normal 0.000000e+00 0.000000e+00 -1.000000e+00
      outer loop
         vertex 4.560000e+02 5.500000e+00 1.320000e+02
         vertex 4.500000e+02 5.500000e+00 1.320000e+02
         vertex 4.560000e+02 8.500000e+00 1.320000e+02
      endloop
   endfacet
   facet normal -0.000000e+00 0.000000e+00 -1.000000e+00
      outer loop
         vertex 4.560000e+02 8.500000e+00 1.320000e+02
         vertex 4.500000e+02 5.500000e+00 1.320000e+02
         vertex 4.500000e+02 8.500000e+00 1.320000e+02
      endloop
   endfacet
   facet normal -0.000000e+00 -1.000000e+00 -0.000000e+00
      outer loop
         vertex 4.560000e+02 5.500000e+00 1.380000e+02
         vertex 4.500000e+02 5.500000e+00 1.380000e+02
         vertex 4.560000e+02 5.500000e+00 1.320000e+02
      endloop
   endfacet
   facet normal 0.000000e+00 -1.000000e+00 0.000000e+00
      outer loop
         vertex 4.560000e+02 5.500000e+00 1.320000e+02
         vertex 4.500000e+02 5.500000e+00 1.380000e+02
         vertex 4.500000e+02 5.500000e+00 1.320000e+02
      endloop
   endfacet
   facet normal -1.000000e+00 0.000000e+00 0.000000e+00
      outer loop
         vertex 4.500000e+02 8.500000e+00 1.320000e+02
         vertex 4.500000e+02 5.500000e+00 1.320000e+02
         vertex 4.500000e+02 8.500000e+00 1.380000e+02
      endloop
   endfacet
   facet normal -1.000000e+00 -0.000000e+00 0.000000e+00
      outer loop
         vertex 4.500000e+02 8.500000e+00 1.380000e+02
         vertex 4.500000e+02 5.500000e+00 1.320000e+02
         vertex 4.500000e+02 5.500000e+00 1.380000e+02
      endloop
   endfacet
   facet normal 1.000000e+00 0.000000e+00 0.000000e+00
      outer loop
         vertex 4.560000e+02 5.500000e+00 1.320000e+02
         vertex 4.560000e+02 8.500000e+00 1.320000e+02
         vertex 4.560000e+02 5.500000e+00 1.380000e+02
      endloop
   endfacet
   facet normal 1.000000e+00 -0.000000e+00 0.000000e+00
      outer loop
         vertex 4.560000e+02 5.500000e+00 1.380000e+02
         vertex 4.560000e+02 8.500000e+00 1.320000e+02
         vertex 4.560000e+02 8.500000e+00 1.380000e+02
      endloop
   endfacet
   facet normal 0.000000e+00 0.000000e+00 1.000000e+00
      outer loop
         vertex 4.110000e+02 8.500000e+00 9.300001e+01
         vertex 4.050000e+02 8.500000e+00 9.300001e+01
         vertex 4.110000e+02 5.500000e+00 9.300001e+01
      endloop
   endfacet
   facet normal 0.000000e+00 0.000000e+00 1.000000e+00
      outer loop
         vertex 4.110000e+02 5.500000e+00 9.300001e+01
         vertex 4.050000e+02 8.500000e+00 9.300001e+01
         vertex 4.050000e+02 5.500000e+00 9.300001e+01
      endloop
   endfacet
   facet normal 0.000000e+00 1.000000e+00 -0.000000e+00
      outer loop
         vertex 4.110000e+02 8.500000e+00 8.700000e+01
         vertex 4.050000e+02 8.500000e+00 8.700000e+01
         vertex 4.110000e+02 8.500000e+00 9.300001e+01
      endloop
   endfacet
   facet normal 0.000000e+00 1.000000e+00 0.000000e+00
      outer loop
         vertex 4.110000e+02 8.500000e+00 9.300001e+01
         vertex 4.050000e+02 8.500000e+00 8.700000e+01
         vertex 4.050000e+02 8.500000e+00 9.300001e+01
      endloop
   endfacet
   facet normal 0.000000e+00 0.000000e+00 -1.000000e+00
      outer loop
         vertex 4.110000e+02 5.500000e+00 8.700000e+01
         vertex 4.050000e+02 5.500000e+00 8.700000e+01
         vertex 4.110000e+02 8.500000e+00 8.700000e+01
      endloop
   endfacet
   facet normal -0.000000e+00 0.000000e+00 -1.000000e+00
      outer loop
         vertex 4.110000e+02 8.500000e+00 8.700000e+01
         vertex 4.050000e+02 5.500000e+00 8.700000e+01
         vertex 4.050000e+02 8.500000e+00 8.700000e+01
      endloop
   endfacet
   facet normal -0.000000e+00 -1.000000e+00 -0.000000e+00
      outer loop
         vertex 4.110000e+02 5.500000e+00 9.300001e+01
         vertex 4.050000e+02 5.500000e+00 9.300001e+01
         vertex 4.110000e+02 5.500000e+00 8.700000e+01
      endloop
   endfacet
   facet normal 0.000000e+00 -1.000000e+00 0.000000e+00
      outer loop
         vertex 4.110000e+02 5.500000e+00 8.700000e+01
         vertex 4.050000e+02 5.500000e+00 9.300001e+01
         vertex 4.050000e+02 5.500000e+00 8.700000e+01
      endloop
   endfacet
   facet normal -1.000000e+00 0.000000e+00 0.000000e+00
      outer loop
         vertex 4.050000e+02 8.500000e+00 8.700000e+01
         vertex 4.050000e+02 5.500000e+00 8.700000e+01
         vertex 4.050000e+02 8.500000e+00 9.300001e+01
      endloop
   endfacet
   facet normal -1.000000e+00 -0.000000e+00 0.000000e+00
      outer loop
         vertex 4.050000e+02 8.500000e+00 9.300001e+01
         vertex 4.050000e+02 5.500000e+00 8.700000e+01
         vertex 4.050000e+02 5.500000e+00 9.300001e+01
      endloop
   endfacet
   facet normal 1.000000e+00 0.000000e+00 0.000000e+00
      outer loop
         vertex 4.110000e+02 5.500000e+00 8.700000e+01
         vertex 4.110000e+02 8.500000e+00 8.700000e+01
         vertex 4.110000e+02 5.500000e+00 9.300001e+01
      endloop
   endfacet
   facet normal 1.000000e+00 -0.000000e+00 0.000000e+00
      outer loop
         vertex 4.110000e+02 5.500000e+00 9.300001e+01
         vertex 4.110000e+02 8.500000e+00 8.700000e+01
         vertex 4.110000e+02 8.500000e+00 9.300001e+01
      endloop
   endfacet
   facet normal 0.000000e+00 0.000000e+00 1.000000e+00
      outer loop
         vertex 5.100000e+01 8.500000e+00 9.300001e+01
         vertex 4.500000e+01 8.500000e+00 9.300001e+01
         vertex 5.100000e+01 5.500000e+00 9.300001e+01
      endloop
   endfacet
   facet normal 0.000000e+00 0.000000e+00 1.000000e+00
      outer loop
         vertex 5.100000e+01 5.500000e+00 9.300001e+01
         vertex 4.500000e+01 8.500000e+00 9.300001e+01
         vertex 4.500000e+01 5.500000e+00 9.300001e+01
      endloop
   endfacet
   facet normal 0.000000e+00 1.000000e+00 -0.000000e+00
      outer loop
         vertex 5.100000e+01 8.500000e+00 8.700000e+01
         vertex 4.500000e+01 8.500000e+00 8.700000e+01
         vertex 5.100000e+01 8.500000e+00 9.300001e+01
      endloop
   endfacet
   facet normal 0.000000e+00 1.000000e+00 0.000000e+00
      outer loop
         vertex 5.100000e+01 8.500000e+00 9.300001e+01
         vertex 4.500000e+01 8.500000e+00 8.700000e+01
         vertex 4.500000e+01 8.500000e+00 9.300001e+01
      endloop
   endfacet
   facet normal 0.000000e+00 0.000000e+00 -1.000000e+00
      outer loop
         vertex 5.100000e+01 5.500000e+00 8.700000e+01
         vertex 4.500000e+01 5.500000e+00 8.700000e+01
         vertex 5.100000e+01 8.500000e+00 8.700000e+01
      endloop
   endfacet
   facet normal -0.000000e+00 0.000000e+00 -1.000000e+00
      outer loop
         vertex 5.100000e+01 8.500000e+00 8.700000e+01
         vertex 4.500000e+01 5.500000e+00 8.700000e+01
         vertex 4.500000e+01 8.500000e+00 8.700000e+01
      endloop
   endfacet
   facet normal -0.000000e+00 -1.000000e+00 -0.000000e+00
      outer loop
         vertex 5.100000e+01 5.500000e+00 9.300001e+01
         vertex 4.500000e+01 5.500000e+00 9.300001e+01
         vertex 5.100000e+01 5.500000e+00 8.700000e+01
      endloop
   endfacet
   facet normal 0.000000e+00 -1.000000e+00 0.000000e+00
      outer loop
         vertex 5.100000e+01 5.500000e+00 8.700000e+01
         vertex 4.500000e+01 5.500000e+00 9.300001e+01
         vertex 4.500000e+01 5.500000e+00 8.700000e+01
      endloop
   endfacet
   facet normal -1.000000e+00 0.000000e+00 0.000000e+00
      outer loop
         vertex 4.500000e+01 8.500000e+00 8.700000e+01
         vertex 4.500000e+01 5.500000e+00 8.700000e+01
         vertex 4.500000e+01 8.500000e+00 9.300001e+01
      endloop
   endfacet
   facet normal -1.000000e+00 -0.000000e+00 0.000000e+00
      outer loop
         vertex 4.500000e+01 8.500000e+00 9.300001e+01
         vertex 4.500000e+01 5.500000e+00 8.700000e+01
         vertex 4.500000e+01 5.500000e+00 9.300001e+01
      endloop
   endfacet
   facet normal 1.000000e+00 0.000000e+00 0.000000e+00
      outer loop
         vertex 5.100000e+01 5.500000e+00 8.700000e+01
         vertex 5.100000e+01 8.500000e+00 8.700000e+01
         vertex 5.100000e+01 5.500000e+00 9.300001e+01
      endloop
   endfacet
   facet normal 1.000000e+00 -0.000000e+00 0.000000e+00
      outer loop
         vertex 5.100000e+01 5.500000e+00 9.300001e+01
         vertex 5.100000e+01 8.500000e+00 8.700000e+01
         vertex 5.100000e+01 8.500000e+00 9.300001e+01
      endloop
   endfacet
   facet normal 0.000000e+00 0.000000e+00 1.000000e+00
      outer loop
         vertex 5.999997e+00 8.500000e+00 1.380000e+02
         vertex 0.000000e+00 8.500000e+00 1.380000e+02
         vertex 5.999997e+00 5.500000e+00 1.380000e+02
      endloop
   endfacet
   facet normal 0.000000e+00 0.000000e+00 1.000000e+00
      outer loop
         vertex 5.999997e+00 5.500000e+00 1.380000e+02
         vertex 0.000000e+00 8.500000e+00 1.380000e+02
         vertex 0.000000e+00 5.500000e+00 1.380000e+02
      endloop
   endfacet
   facet normal 0.000000e+00 1.000000e+00 -0.000000e+00
      outer loop
         vertex 5.999997e+00 8.500000e+00 1.320000e+02
         vertex 0.000000e+00 8.500000e+00 1.320000e+02
         vertex 5.999997e+00 8.500000e+00 1.380000e+02
      endloop
   endfacet
   facet normal 0.000000e+00 1.000000e+00 0.000000e+00
      outer loop
         vertex 5.999997e+00 8.500000e+00 1.380000e+02
         vertex 0.000000e+00 8.500000e+00 1.320000e+02
         vertex 0.000000e+00 8.500000e+00 1.380000e+02
      endloop
   endfacet
   facet normal 0.000000e+00 0.000000e+00 -1.000000e+00
      outer loop
         vertex 5.999997e+00 5.500000e+00 1.320000e+02
         vertex 0.000000e+00 5.500000e+00 1.320000e+02
         vertex 5.999997e+00 8.500000e+00 1.320000e+02
      endloop
   endfacet
   facet normal -0.000000e+00 0.000000e+00 -1.000000e+00
      outer loop
         vertex 5.999997e+00 8.500000e+00 1.320000e+02
         vertex 0.000000e+00 5.500000e+00 1.320000e+02
         vertex 0.000000e+00 8.500000e+00 1.320000e+02
      endloop
   endfacet
   facet normal -0.000000e+00 -1.000000e+00 -0.000000e+00
      outer loop
         vertex 5.999997e+00 5.500000e+00 1.380000e+02
         vertex 0.000000e+00 5.500000e+00 1.380000e+02
         vertex 5.999997e+00 5.500000e+00 1.320000e+02
      endloop
   endfacet
   facet normal 0.000000e+00 -1.000000e+00 0.000000e+00
      outer loop
         vertex 5.999997e+00 5.500000e+00 1.320000e+02
         vertex 0.000000e+00 5.500000e+00 1.380000e+02
         vertex 0.000000e+00 5.500000e+00 1.320000e+02
      endloop
   endfacet
   facet normal -1.000000e+00 0.000000e+00 0.000000e+00
      outer loop
         vertex 0.000000e+00 8.500000e+00 1.320000e+02
         vertex 0.000000e+00 5.500000e+00 1.320000e+02
         vertex 0.000000e+00 8.500000e+00 1.380000e+02
      endloop
   endfacet
   facet normal -1.000000e+00 -0.000000e+00 0.000000e+00
      outer loop
         vertex 0.000000e+00 8.500000e+00 1.380000e+02
         vertex 0.000000e+00 5.500000e+00 1.320000e+02
         vertex 0.000000e+00 5.500000e+00 1.380000e+02
      endloop
   endfacet
   facet normal 1.000000e+00 0.000000e+00 0.000000e+00
      outer loop
         vertex 5.999997e+00 5.500000e+00 1.320000e+02
         vertex 5.999997e+00 8.500000e+00 1.320000e+02
         vertex 5.999997e+00 5.500000e+00 1.380000e+02
      endloop
   endfacet
   facet normal 1.000000e+00 -0.000000e+00 0.000000e+00
      outer loop
         vertex 5.999997e+00 5.500000e+00 1.380000e+02
         vertex 5.999997e+00 8.500000e+00 1.320000e+02
         vertex 5.999997e+00 8.500000e+00 1.380000e+02
      endloop
   endfacet
   facet normal 0.000000e+00 0.000000e+00 1.000000e+00
      outer loop
         vertex 5.100000e+01 8.500000e+00 1.830000e+02
         vertex 4.500000e+01 8.500000e+00 1.830000e+02
         vertex 5.100000e+01 5.500000e+00 1.830000e+02
      endloop
   endfacet
   facet normal 0.000000e+00 0.000000e+00 1.000000e+00
      outer loop
         vertex 5.100000e+01 5.500000e+00 1.830000e+02
         vertex 4.500000e+01 8.500000e+00 1.830000e+02
         vertex 4.500000e+01 5.500000e+00 1.830000e+02
      endloop
   endfacet
   facet normal 0.000000e+00 1.000000e+00 -0.000000e+00
      outer loop
         vertex 5.100000e+01 8.500000e+00 1.770000e+02
         vertex 4.500000e+01 8.500000e+00 1.770000e+02
         vertex 5.100000e+01 8.500000e+00 1.830000e+02
      endloop
   endfacet
   facet normal 0.000000e+00 1.000000e+00 0.000000e+00
      outer loop
         vertex 5.100000e+01 8.500000e+00 1.830000e+02
         vertex 4.500000e+01 8.500000e+00 1.770000e+02
         vertex 4.500000e+01 8.500000e+00 1.830000e+02
      endloop
   endfacet
   facet normal 0.000000e+00 0.000000e+00 -1.000000e+00
      outer loop
         vertex 5.100000e+01 5.500000e+00 1.770000e+02
         vertex 4.500000e+01 5.500000e+00 1.770000e+02
         vertex 5.100000e+01 8.500000e+00 1.770000e+02
      endloop
   endfacet
   facet normal -0.000000e+00 0.000000e+00 -1.000000e+00
      outer loop
         vertex 5.100000e+01 8.500000e+00 1.770000e+02
         vertex 4.500000e+01 5.500000e+00 1.770000e+02
         vertex 4.500000e+01 8.500000e+00 1.770000e+02
      endloop
   endfacet
   facet normal -0.000000e+00 -1.000000e+00 -0.000000e+00
      outer loop
         vertex 5.100000e+01 5.500000e+00 1.830000e+02
         vertex 4.500000e+01 5.500000e+00 1.830000e+02
         vertex 5.100000e+01 5.500000e+00 1.770000e+02
      endloop
   endfacet
   facet normal 0.000000e+00 -1.000000e+00 0.000000e+00
      outer loop
         vertex 5.100000e+01 5.500000e+00 1.770000e+02
         vertex 4.500000e+01 5.500000e+00 1.830000e+02
         vertex 4.500000e+01 5.500000e+00 1.770000e+02
      endloop
   endfacet
   facet normal -1.000000e+00 0.000000e+00 0.000000e+00
      outer loop
         vertex 4.500000e+01 8.500000e+00 1.770000e+02
         vertex 4.500000e+01 5.500000e+00 1.770000e+02
         vertex 4.500000e+01 8.500000e+00 1.830000e+02
      endloop
   endfacet
   facet normal -1.000000e+00 -0.000000e+00 0.000000e+00
      outer loop
         vertex 4.500000e+01 8.500000e+00 1.830000e+02
         vertex 4.500000e+01 5.500000e+00 1.770000e+02
         vertex 4.500000e+01 5.500000e+00 1.830000e+02
      endloop
   endfacet
   facet normal 1.000000e+00 0.000000e+00 0.000000e+00
      outer loop
         vertex 5.100000e+01 5.500000e+00 1.770000e+02
         vertex 5.100000e+01 8.500000e+00 1.770000e+02
         vertex 5.100000e+01 5.500000e+00 1.830000e+02
      endloop
   endfacet
   facet normal 1.000000e+00 -0.000000e+00 0.000000e+00
      outer loop
         vertex 5.100000e+01 5.500000e+00 1.830000e+02
         vertex 5.100000e+01 8.500000e+00 1.770000e+02
         vertex 5.100000e+01 8.500000e+00 1.830000e+02
      endloop
   endfacet
   facet normal 0.000000e+00 0.000000e+00 1.000000e+00
      outer loop
         vertex 1.410000e+02 8.500000e+00 9.300001e+01
         vertex 1.350000e+02 8.500000e+00 9.300001e+01
         vertex 1.410000e+02 5.500000e+00 9.300001e+01
      endloop
   endfacet
   facet normal 0.000000e+00 0.000000e+00 1.000000e+00
      outer loop
         vertex 1.410000e+02 5.500000e+00 9.300001e+01
         vertex 1.350000e+02 8.500000e+00 9.300001e+01
         vertex 1.350000e+02 5.500000e+00 9.300001e+01
      endloop
   endfacet
   facet normal 0.000000e+00 1.000000e+00 -0.000000e+00
      outer loop
         vertex 1.410000e+02 8.500000e+00 8.700000e+01
         vertex 1.350000e+02 8.500000e+00 8.700000e+01
         vertex 1.410000e+02 8.500000e+00 9.300001e+01
      endloop
   endfacet
   facet normal 0.000000e+00 1.000000e+00 0.000000e+00
      outer loop
         vertex 1.410000e+02 8.500000e+00 9.300001e+01
         vertex 1.350000e+02 8.500000e+00 8.700000e+01
         vertex 1.350000e+02 8.500000e+00 9.300001e+01
      endloop
   endfacet
   facet normal 0.000000e+00 0.000000e+00 -1.000000e+00
      outer loop
         vertex 1.410000e+02 5.500000e+00 8.700000e+01
         vertex 1.350000e+02 5.500000e+00 8.700000e+01
         vertex 1.410000e+02 8.500000e+00 8.700000e+01
      endloop
   endfacet
   facet normal -0.000000e+00 0.000000e+00 -1.000000e+00
      outer loop
         vertex 1.410000e+02 8.500000e+00 8.700000e+01
         vertex 1.350000e+02 5.500000e+00 8.700000e+01
         vertex 1.350000e+02 8.500000e+00 8.700000e+01
      endloop
   endfacet
   facet normal -0.000000e+00 -1.000000e+00 -0.000000e+00
      outer loop
         vertex 1.410000e+02 5.500000e+00 9.300001e+01
         vertex 1.350000e+02 5.500000e+00 9.300001e+01
         vertex 1.410000e+02 5.500000e+00 8.700000e+01
      endloop
   endfacet
   facet normal 0.000000e+00 -1.000000e+00 0.000000e+00
      outer loop
         vertex 1.410000e+02 5.500000e+00 8.700000e+01
         vertex 1.350000e+02 5.500000e+00 9.300001e+01
         vertex 1.350000e+02 5.500000e+00 8.700000e+01
      endloop
   endfacet
   facet normal -1.000000e+00 0.000000e+00 0.000000e+00
      outer loop
         vertex 1.350000e+02 8.500000e+00 8.700000e+01
         vertex 1.350000e+02 5.500000e+00 8.700000e+01
         vertex 1.350000e+02 8.500000e+00 9.300001e+01
      endloop
   endfacet
   facet normal -1.000000e+00 -0.000000e+00 0.000000e+00
      outer loop
         vertex 1.350000e+02 8.500000e+00 9.300001e+01
         vertex 1.350000e+02 5.500000e+00 8.700000e+01
         vertex 1.350000e+02 5.500000e+00 9.300001e+01
      endloop
   endfacet
   facet normal 1.000000e+00 0.000000e+00 0.000000e+00
      outer loop
         vertex 1.410000e+02 5.500000e+00 8.700000e+01
         vertex 1.410000e+02 8.500000e+00 8.700000e+01
         vertex 1.410000e+02 5.500000e+00 9.300001e+01
      endloop
   endfacet
   facet normal 1.000000e+00 -0.000000e+00 0.000000e+00
      outer loop
         vertex 1.410000e+02 5.500000e+00 9.300001e+01
         vertex 1.410000e+02 8.500000e+00 8.700000e+01
         vertex 1.410000e+02 8.500000e+00 9.300001e+01
      endloop
   endfacet
   facet normal 0.000000e+00 0.000000e+00 1.000000e+00
      outer loop
         vertex 9.600000e+01 8.500000e+00 1.380000e+02
         vertex 9.000000e+01 8.500000e+00 1.380000e+02
         vertex 9.600000e+01 5.500000e+00 1.380000e+02
      endloop
   endfacet
   facet normal 0.000000e+00 0.000000e+00 1.000000e+00
      outer loop
         vertex 9.600000e+01 5.500000e+00 1.380000e+02
         vertex 9.000000e+01 8.500000e+00 1.380000e+02
         vertex 9.000000e+01 5.500000e+00 1.380000e+02
      endloop
   endfacet
   facet normal 0.000000e+00 1.000000e+00 -0.000000e+00
      outer loop
         vertex 9.600000e+01 8.500000e+00 1.320000e+02
         vertex 9.000000e+01 8.500000e+00 1.320000e+02
         vertex 9.600000e+01 8.500000e+00 1.380000e+02
      endloop
   endfacet
   facet normal 0.000000e+00 1.000000e+00 0.000000e+00
      outer loop
         vertex 9.600000e+01 8.500000e+00 1.380000e+02
         vertex 9.000000e+01 8.500000e+00 1.320000e+02
         vertex 9.000000e+01 8.500000e+00 1.380000e+02
      endloop
   endfacet
   facet normal 0.000000e+00 0.000000e+00 -1.000000e+00
      outer loop
         vertex 9.600000e+01 5.500000e+00 1.320000e+02
         vertex 9.000000e+01 5.500000e+00 1.320000e+02
         vertex 9.600000e+01 8.500000e+00 1.320000e+02
      endloop
   endfacet
   facet normal -0.000000e+00 0.000000e+00 -1.000000e+00
      outer loop
         vertex 9.600000e+01 8.500000e+00 1.320000e+02
         vertex 9.000000e+01 5.500000e+00 1.320000e+02
         vertex 9.000000e+01 8.500000e+00 1.320000e+02
      endloop
   endfacet
   facet normal -0.000000e+00 -1.000000e+00 -0.000000e+00
      outer loop
         vertex 9.600000e+01 5.500000e+00 1.380000e+02
         vertex 9.000000e+01 5.500000e+00 1.380000e+02
         vertex 9.600000e+01 5.500000e+00 1.320000e+02
      endloop
   endfacet
   facet normal 0.000000e+00 -1.000000e+00 0.000000e+00
      outer loop
         vertex 9.600000e+01 5.500000e+00 1.320000e+02
         vertex 9.000000e+01 5.500000e+00 1.380000e+02
         vertex 9.000000e+01 5.500000e+00 1.320000e+02
      endloop
   endfacet
   facet normal -1.000000e+00 0.000000e+00 0.000000e+00
      outer loop
         vertex 9.000000e+01 8.500000e+00 1.320000e+02
         vertex 9.000000e+01 5.500000e+00 1.320000e+02
         vertex 9.000000e+01 8.500000e+00 1.380000e+02
      endloop
   endfacet
   facet normal -1.000000e+00 -0.000000e+00 0.000000e+00
      outer loop
         vertex 9.000000e+01 8.500000e+00 1.380000e+02
         vertex 9.000000e+01 5.500000e+00 1.320000e+02
         vertex 9.000000e+01 5.500000e+00 1.380000e+02
      endloop
   endfacet
   facet normal 1.000000e+00 0.000000e+00 0.000000e+00
      outer loop
         vertex 9.600000e+01 5.500000e+00 1.320000e+02
         vertex 9.600000e+01 8.500000e+00 1.320000e+02
         vertex 9.600000e+01 5.500000e+00 1.380000e+02
      endloop
   endfacet
   facet normal 1.000000e+00 -0.000000e+00 0.000000e+00
      outer loop
         vertex 9.600000e+01 5.500000e+00 1.380000e+02
         vertex 9.600000e+01 8.500000e+00 1.320000e+02
         vertex 9.600000e+01 8.500000e+00 1.380000e+02
      endloop
   endfacet
   facet normal 0.000000e+00 0.000000e+00 1.000000e+00
      outer loop
         vertex 5.100000e+01 8.500000e+00 3.630000e+02
         vertex 4.500000e+01 8.500000e+00 3.630000e+02
         vertex 5.100000e+01 5.500000e+00 3.630000e+02
      endloop
   endfacet
   facet normal 0.000000e+00 0.000000e+00 1.000000e+00
      outer loop
         vertex 5.100000e+01 5.500000e+00 3.630000e+02
         vertex 4.500000e+01 8.500000e+00 3.630000e+02
         vertex 4.500000e+01 5.500000e+00 3.630000e+02
      endloop
   endfacet
   facet normal 0.000000e+00 1.000000e+00 -0.000000e+00
      outer loop
         vertex 5.100000e+01 8.500000e+00 3.570000e+02
         vertex 4.500000e+01 8.500000e+00 3.570000e+02
         vertex 5.100000e+01 8.500000e+00 3.630000e+02
      endloop
   endfacet
   facet normal 0.000000e+00 1.000000e+00 0.000000e+00
      outer loop
         vertex 5.100000e+01 8.500000e+00 3.630000e+02
         vertex 4.500000e+01 8.500000e+00 3.570000e+02
         vertex 4.500000e+01 8.500000e+00 3.630000e+02
      endloop
   endfacet
   facet normal 0.000000e+00 0.000000e+00 -1.000000e+00
      outer loop
         vertex 5.100000e+01 5.500000e+00 3.570000e+02
         vertex 4.500000e+01 5.500000e+00 3.570000e+02
         vertex 5.100000e+01 8.500000e+00 3.570000e+02
      endloop
   endfacet
   facet normal -0.000000e+00 0.000000e+00 -1.000000e+00
      outer loop
         vertex 5.100000e+01 8.500000e+00 3.570000e+02
         vertex 4.500000e+01 5.500000e+00 3.570000e+02
         vertex 4.500000e+01 8.500000e+00 3.570000e+02
      endloop
   endfacet
   facet normal -0.000000e+00 -1.000000e+00 -0.000000e+00
      outer loop
         vertex 5.100000e+01 5.500000e+00 3.630000e+02
         vertex 4.500000e+01 5.500000e+00 3.630000e+02
         vertex 5.100000e+01 5.500000e+00 3.570000e+02
      endloop
   endfacet
   facet normal 0.000000e+00 -1.000000e+00 0.000000e+00
      outer loop
         vertex 5.100000e+01 5.500000e+00 3.570000e+02
         vertex 4.500000e+01 5.500000e+00 3.630000e+02
         vertex 4.500000e+01 5.500000e+00 3.570000e+02
      endloop
   endfacet
   facet normal -1.000000e+00 0.000000e+00 0.000000e+00
      outer loop
         vertex 4.500000e+01 8.500000e+00 3.570000e+02
         vertex 4.500000e+01 5.500000e+00 3.570000e+02
         vertex 4.500000e+01 8.500000e+00 3.630000e+02
      endloop
   endfacet
   facet normal -1.000000e+00 -0.000000e+00 0.000000e+00
      outer loop
         vertex 4.500000e+01 8.500000e+00 3.630000e+02
         vertex 4.500000e+01 5.500000e+00 3.570000e+02
         vertex 4.500000e+01 5.500000e+00 3.630000e+02
      endloop
   endfacet
   facet normal 1.000000e+00 0.000000e+00 0.000000e+00
      outer loop
         vertex 5.100000e+01 5.500000e+00 3.570000e+02
         vertex 5.100000e+01 8.500000e+00 3.570000e+02
         vertex 5.100000e+01 5.500000e+00 3.630000e+02
      endloop
   endfacet
   facet normal 1.000000e+00 -0.000000e+00 0.000000e+00
      outer loop
         vertex 5.100000e+01 5.500000e+00 3.630000e+02
         vertex 5.100000e+01 8.500000e+00 3.570000e+02
         vertex 5.100000e+01 8.500000e+00 3.630000e+02
      endloop
   endfacet
   facet normal 0.000000e+00 0.000000e+00 1.000000e+00
      outer loop
         vertex 9.600000e+01 8.500000e+00 3.180000e+02
         vertex 9.000000e+01 8.500000e+00 3.180000e+02
         vertex 9.600000e+01 5.500000e+00 3.180000e+02
      endloop
   endfacet
   facet normal 0.000000e+00 0.000000e+00 1.000000e+00
      outer loop
         vertex 9.600000e+01 5.500000e+00 3.180000e+02
         vertex 9.000000e+01 8.500000e+00 3.180000e+02
         vertex 9.000000e+01 5.500000e+00 3.180000e+02
      endloop
   endfacet
   facet normal 0.000000e+00 1.000000e+00 -0.000000e+00
      outer loop
         vertex 9.600000e+01 8.500000e+00 3.120000e+02
         vertex 9.000000e+01 8.500000e+00 3.120000e+02
         vertex 9.600000e+01 8.500000e+00 3.180000e+02
      endloop
   endfacet
   facet normal 0.000000e+00 1.000000e+00 0.000000e+00
      outer loop
         vertex 9.600000e+01 8.500000e+00 3.180000e+02
         vertex 9.000000e+01 8.500000e+00 3.120000e+02
         vertex 9.000000e+01 8.500000e+00 3.180000e+02
      endloop
   endfacet
   facet normal 0.000000e+00 0.000000e+00 -1.000000e+00
      outer loop
         vertex 9.600000e+01 5.500000e+00 3.120000e+02
         vertex 9.000000e+01 5.500000e+00 3.120000e+02
         vertex 9.600000e+01 8.500000e+00 3.120000e+02
      endloop
   endfacet
   facet normal -0.000000e+00 0.000000e+00 -1.000000e+00
      outer loop
         vertex 9.600000e+01 8.500000e+00 3.120000e+02
         vertex 9.000000e+01 5.500000e+00 3.120000e+02
         vertex 9.000000e+01 8.500000e+00 3.120000e+02
      endloop
   endfacet
   facet normal -0.000000e+00 -1.000000e+00 -0.000000e+00
      outer loop
         vertex 9.600000e+01 5.500000e+00 3.180000e+02
         vertex 9.000000e+01 5.500000e+00 3.180000e+02
         vertex 9.600000e+01 5.500000e+00 3.120000e+02
      endloop
   endfacet
   facet normal 0.000000e+00 -1.000000e+00 0.000000e+00
      outer loop
         vertex 9.600000e+01 5.500000e+00 3.120000e+02
         vertex 9.000000e+01 5.500000e+00 3.180000e+02
         vertex 9.000000e+01 5.500000e+00 3.120000e+02
      endloop
   endfacet
   facet normal -1.000000e+00 0.000000e+00 0.000000e+00
      outer loop
         vertex 9.000000e+01 8.500000e+00 3.120000e+02
         vertex 9.000000e+01 5.500000e+00 3.120000e+02
         vertex 9.000000e+01 8.500000e+00 3.180000e+02
      endloop
   endfacet
   facet normal -1.000000e+00 -0.000000e+00 0.000000e+00
      outer loop
         vertex 9.000000e+01 8.500000e+00 3.180000e+02
         vertex 9.000000e+01 5.500000e+00 3.120000e+02
         vertex 9.000000e+01 5.500000e+00 3.180000e+02
      endloop
   endfacet
   facet normal 1.000000e+00 0.000000e+00 0.000000e+00
      outer loop
         vertex 9.600000e+01 5.500000e+00 3.120000e+02
         vertex 9.600000e+01 8.500000e+00 3.120000e+02
         vertex 9.600000e+01 5.500000e+00 3.180000e+02
      endloop
   endfacet
   facet normal 1.000000e+00 -0.000000e+00 0.000000e+00
      outer loop
         vertex 9.600000e+01 5.500000e+00 3.180000e+02
         vertex 9.600000e+01 8.500000e+00 3.120000e+02
         vertex 9.600000e+01 8.500000e+00 3.180000e+02
      endloop
   endfacet
   facet normal 0.000000e+00 0.000000e+00 1.000000e+00
      outer loop
         vertex 5.999997e+00 8.500000e+00 3.180000e+02
         vertex 0.000000e+00 8.500000e+00 3.180000e+02
         vertex 5.999997e+00 5.500000e+00 3.180000e+02
      endloop
   endfacet
   facet normal 0.000000e+00 0.000000e+00 1.000000e+00
      outer loop
         vertex 5.999997e+00 5.500000e+00 3.180000e+02
         vertex 0.000000e+00 8.500000e+00 3.180000e+02
         vertex 0.000000e+00 5.500000e+00 3.180000e+02
      endloop
   endfacet
   facet normal 0.000000e+00 1.000000e+00 -0.000000e+00
      outer loop
         vertex 5.999997e+00 8.500000e+00 3.120000e+02
         vertex 0.000000e+00 8.500000e+00 3.120000e+02
         vertex 5.999997e+00 8.500000e+00 3.180000e+02
      endloop
   endfacet
   facet normal 0.000000e+00 1.000000e+00 0.000000e+00
      outer loop
         vertex 5.999997e+00 8.500000e+00 3.180000e+02
         vertex 0.000000e+00 8.500000e+00 3.120000e+02
         vertex 0.000000e+00 8.500000e+00 3.180000e+02
      endloop
   endfacet
   facet normal 0.000000e+00 0.000000e+00 -1.000000e+00
      outer loop
         vertex 5.999997e+00 5.500000e+00 3.120000e+02
         vertex 0.000000e+00 5.500000e+00 3.120000e+02
         vertex 5.999997e+00 8.500000e+00 3.120000e+02
      endloop
   endfacet
   facet normal -0.000000e+00 0.000000e+00 -1.000000e+00
      outer loop
         vertex 5.999997e+00 8.500000e+00 3.120000e+02
         vertex 0.000000e+00 5.500000e+00 3.120000e+02
         vertex 0.000000e+00 8.500000e+00 3.120000e+02
      endloop
   endfacet
   facet normal -0.000000e+00 -1.000000e+00 -0.000000e+00
      outer loop
         vertex 5.999997e+00 5.500000e+00 3.180000e+02
         vertex 0.000000e+00 5.500000e+00 3.180000e+02
         vertex 5.999997e+00 5.500000e+00 3.120000e+02
      endloop
   endfacet
   facet normal 0.000000e+00 -1.000000e+00 0.000000e+00
      outer loop
         vertex 5.999997e+00 5.500000e+00 3.120000e+02
         vertex 0.000000e+00 5.500000e+00 3.180000e+02
         vertex 0.000000e+00 5.500000e+00 3.120000e+02
      endloop
   endfacet
   facet normal -1.000000e+00 0.000000e+00 0.000000e+00
      outer loop
         vertex 0.000000e+00 8.500000e+00 3.120000e+02
         vertex 0.000000e+00 5.500000e+00 3.120000e+02
         vertex 0.000000e+00 8.500000e+00 3.180000e+02
      endloop
   endfacet
   facet normal -1.000000e+00 -0.000000e+00 0.000000e+00
      outer loop
         vertex 0.000000e+00 8.500000e+00 3.180000e+02
         vertex 0.000000e+00 5.500000e+00 3.120000e+02
         vertex 0.000000e+00 5.500000e+00 3.180000e+02
      endloop
   endfacet
   facet normal 1.000000e+00 0.000000e+00 0.000000e+00
      outer loop
         vertex 5.999997e+00 5.500000e+00 3.120000e+02
         vertex 5.999997e+00 8.500000e+00 3.120000e+02
         vertex 5.999997e+00 5.500000e+00 3.180000e+02
      endloop
   endfacet
   facet normal 1.000000e+00 -0.000000e+00 0.000000e+00
      outer loop
         vertex 5.999997e+00 5.500000e+00 3.180000e+02
         vertex 5.999997e+00 8.500000e+00 3.120000e+02
         vertex 5.999997e+00 8.500000e+00 3.180000e+02
      endloop
   endfacet
   facet normal 0.000000e+00 0.000000e+00 1.000000e+00
      outer loop
         vertex 5.999997e+00 8.500000e+00 4.080000e+02
         vertex 0.000000e+00 8.500000e+00 4.080000e+02
         vertex 5.999997e+00 5.500000e+00 4.080000e+02
      endloop
   endfacet
   facet normal 0.000000e+00 0.000000e+00 1.000000e+00
      outer loop
         vertex 5.999997e+00 5.500000e+00 4.080000e+02
         vertex 0.000000e+00 8.500000e+00 4.080000e+02
         vertex 0.000000e+00 5.500000e+00 4.080000e+02
      endloop
   endfacet
   facet normal 0.000000e+00 1.000000e+00 -0.000000e+00
      outer loop
         vertex 5.999997e+00 8.500000e+00 4.020000e+02
         vertex 0.000000e+00 8.500000e+00 4.020000e+02
         vertex 5.999997e+00 8.500000e+00 4.080000e+02
      endloop
   endfacet
   facet normal 0.000000e+00 1.000000e+00 0.000000e+00
      outer loop
         vertex 5.999997e+00 8.500000e+00 4.080000e+02
         vertex 0.000000e+00 8.500000e+00 4.020000e+02
         vertex 0.000000e+00 8.500000e+00 4.080000e+02
      endloop
   endfacet
   facet normal 0.000000e+00 0.000000e+00 -1.000000e+00
      outer loop
         vertex 5.999997e+00 5.500000e+00 4.020000e+02
         vertex 0.000000e+00 5.500000e+00 4.020000e+02
         vertex 5.999997e+00 8.500000e+00 4.020000e+02
      endloop
   endfacet
   facet normal -0.000000e+00 0.000000e+00 -1.000000e+00
      outer loop
         vertex 5.999997e+00 8.500000e+00 4.020000e+02
         vertex 0.000000e+00 5.500000e+00 4.020000e+02
         vertex 0.000000e+00 8.500000e+00 4.020000e+02
      endloop
   endfacet
   facet normal -0.000000e+00 -1.000000e+00 -0.000000e+00
      outer loop
         vertex 5.999997e+00 5.500000e+00 4.080000e+02
         vertex 0.000000e+00 5.500000e+00 4.080000e+02
         vertex 5.999997e+00 5.500000e+00 4.020000e+02
      endloop
   endfacet
   facet normal 0.000000e+00 -1.000000e+00 0.000000e+00
      outer loop
         vertex 5.999997e+00 5.500000e+00 4.020000e+02
         vertex 0.000000e+00 5.500000e+00 4.080000e+02
         vertex 0.000000e+00 5.500000e+00 4.020000e+02
      endloop
   endfacet
   facet normal -1.000000e+00 0.000000e+00 0.000000e+00
      outer loop
         vertex 0.000000e+00 8.500000e+00 4.020000e+02
         vertex 0.000000e+00 5.500000e+00 4.020000e+02
         vertex 0.000000e+00 8.500000e+00 4.080000e+02
      endloop
   endfacet
   facet normal -1.000000e+00 -0.000000e+00 0.000000e+00
      outer loop
         vertex 0.000000e+00 8.500000e+00 4.080000e+02
         vertex 0.000000e+00 5.500000e+00 4.020000e+02
         vertex 0.000000e+00 5.500000e+00 4.080000e+02
      endloop
   endfacet
   facet normal 1.000000e+00 0.000000e+00 0.000000e+00
      outer loop
         vertex 5.999997e+00 5.500000e+00 4.020000e+02
         vertex 5.999997e+00 8.500000e+00 4.020000e+02
         vertex 5.999997e+00 5.500000e+00 4.080000e+02
      endloop
   endfacet
   facet normal 1.000000e+00 -0.000000e+00 0.000000e+00
      outer loop
         vertex 5.999997e+00 5.500000e+00 4.080000e+02
         vertex 5.999997e+00 8.500000e+00 4.020000e+02
         vertex 5.999997e+00 8.500000e+00 4.080000e+02
      endloop
   endfacet
   facet normal 0.000000e+00 0.000000e+00 1.000000e+00
      outer loop
         vertex 9.600000e+01 8.500000e+00 4.080000e+02
         vertex 9.000000e+01 8.500000e+00 4.080000e+02
         vertex 9.600000e+01 5.500000e+00 4.080000e+02
      endloop
   endfacet
   facet normal 0.000000e+00 0.000000e+00 1.000000e+00
      outer loop
         vertex 9.600000e+01 5.500000e+00 4.080000e+02
         vertex 9.000000e+01 8.500000e+00 4.080000e+02
         vertex 9.000000e+01 5.500000e+00 4.080000e+02
      endloop
   endfacet
   facet normal 0.000000e+00 1.000000e+00 -0.000000e+00
      outer loop
         vertex 9.600000e+01 8.500000e+00 4.020000e+02
         vertex 9.000000e+01 8.500000e+00 4.020000e+02
         vertex 9.600000e+01 8.500000e+00 4.080000e+02
      endloop
   endfacet
   facet normal 0.000000e+00 1.000000e+00 0.000000e+00
      outer loop
         vertex 9.600000e+01 8.500000e+00 4.080000e+02
         vertex 9.000000e+01 8.500000e+00 4.020000e+02
         vertex 9.000000e+01 8.500000e+00 4.080000e+02
      endloop
   endfacet
   facet normal 0.000000e+00 0.000000e+00 -1.000000e+00
      outer loop
         vertex 9.600000e+01 5.500000e+00 4.020000e+02
         vertex 9.000000e+01 5.500000e+00 4.020000e+02
         vertex 9.600000e+01 8.500000e+00 4.020000e+02
      endloop
   endfacet
   facet normal -0.000000e+00 0.000000e+00 -1.000000e+00
      outer loop
         vertex 9.600000e+01 8.500000e+00 4.020000e+02
         vertex 9.000000e+01 5.500000e+00 4.020000e+02
         vertex 9.000000e+01 8.500000e+00 4.020000e+02
      endloop
   endfacet
   facet normal -0.000000e+00 -1.000000e+00 -0.000000e+00
      outer loop
         vertex 9.600000e+01 5.500000e+00 4.080000e+02
         vertex 9.000000e+01 5.500000e+00 4.080000e+02
         vertex 9.600000e+01 5.500000e+00 4.020000e+02
      endloop
   endfacet
   facet normal 0.000000e+00 -1.000000e+00 0.000000e+00
      outer loop
         vertex 9.600000e+01 5.500000e+00 4.020000e+02
         vertex 9.000000e+01 5.500000e+00 4.080000e+02
         vertex 9.000000e+01 5.500000e+00 4.020000e+02
      endloop
   endfacet
   facet normal -1.000000e+00 0.000000e+00 0.000000e+00
      outer loop
         vertex 9.000000e+01 8.500000e+00 4.020000e+02
         vertex 9.000000e+01 5.500000e+00 4.020000e+02
         vertex 9.000000e+01 8.500000e+00 4.080000e+02
      endloop
   endfacet
   facet normal -1.000000e+00 -0.000000e+00 0.000000e+00
      outer loop
         vertex 9.000000e+01 8.500000e+00 4.080000e+02
         vertex 9.000000e+01 5.500000e+00 4.020000e+02
         vertex 9.000000e+01 5.500000e+00 4.080000e+02
      endloop
   endfacet
   facet normal 1.000000e+00 0.000000e+00 0.000000e+00
      outer loop
         vertex 9.600000e+01 5.500000e+00 4.020000e+02
         vertex 9.600000e+01 8.500000e+00 4.020000e+02
         vertex 9.600000e+01 5.500000e+00 4.080000e+02
      endloop
   endfacet
   facet normal 1.000000e+00 -0.000000e+00 0.000000e+00
      outer loop
         vertex 9.600000e+01 5.500000e+00 4.080000e+02
         vertex 9.600000e+01 8.500000e+00 4.020000e+02
         vertex 9.600000e+01 8.500000e+00 4.080000e+02
      endloop
   endfacet
   facet normal 0.000000e+00 0.000000e+00 1.000000e+00
      outer loop
         vertex 3.660000e+02 8.500000e+00 4.080000e+02
         vertex 3.600000e+02 8.500000e+00 4.080000e+02
         vertex 3.660000e+02 5.500000e+00 4.080000e+02
      endloop
   endfacet
   facet normal 0.000000e+00 0.000000e+00 1.000000e+00
      outer loop
         vertex 3.660000e+02 5.500000e+00 4.080000e+02
         vertex 3.600000e+02 8.500000e+00 4.080000e+02
         vertex 3.600000e+02 5.500000e+00 4.080000e+02
      endloop
   endfacet
   facet normal 0.000000e+00 1.000000e+00 -0.000000e+00
      outer loop
         vertex 3.660000e+02 8.500000e+00 4.020000e+02
         vertex 3.600000e+02 8.500000e+00 4.020000e+02
         vertex 3.660000e+02 8.500000e+00 4.080000e+02
      endloop
   endfacet
   facet normal 0.000000e+00 1.000000e+00 0.000000e+00
      outer loop
         vertex 3.660000e+02 8.500000e+00 4.080000e+02
         vertex 3.600000e+02 8.500000e+00 4.020000e+02
         vertex 3.600000e+02 8.500000e+00 4.080000e+02
      endloop
   endfacet
   facet normal 0.000000e+00 0.000000e+00 -1.000000e+00
      outer loop
         vertex 3.660000e+02 5.500000e+00 4.020000e+02
         vertex 3.600000e+02 5.500000e+00 4.020000e+02
         vertex 3.660000e+02 8.500000e+00 4.020000e+02
      endloop
   endfacet
   facet normal -0.000000e+00 0.000000e+00 -1.000000e+00
      outer loop
         vertex 3.660000e+02 8.500000e+00 4.020000e+02
         vertex 3.600000e+02 5.500000e+00 4.020000e+02
         vertex 3.600000e+02 8.500000e+00 4.020000e+02
      endloop
   endfacet
   facet normal -0.000000e+00 -1.000000e+00 -0.000000e+00
      outer loop
         vertex 3.660000e+02 5.500000e+00 4.080000e+02
         vertex 3.600000e+02 5.500000e+00 4.080000e+02
         vertex 3.660000e+02 5.500000e+00 4.020000e+02
      endloop
   endfacet
   facet normal 0.000000e+00 -1.000000e+00 0.000000e+00
      outer loop
         vertex 3.660000e+02 5.500000e+00 4.020000e+02
         vertex 3.600000e+02 5.500000e+00 4.080000e+02
         vertex 3.600000e+02 5.500000e+00 4.020000e+02
      endloop
   endfacet
   facet normal -1.000000e+00 0.000000e+00 0.000000e+00
      outer loop
         vertex 3.600000e+02 8.500000e+00 4.020000e+02
         vertex 3.600000e+02 5.500000e+00 4.020000e+02
         vertex 3.600000e+02 8.500000e+00 4.080000e+02
      endloop
   endfacet
   facet normal -1.000000e+00 -0.000000e+00 0.000000e+00
      outer loop
         vertex 3.600000e+02 8.500000e+00 4.080000e+02
         vertex 3.600000e+02 5.500000e+00 4.020000e+02
         vertex 3.600000e+02 5.500000e+00 4.080000e+02
      endloop
   endfacet
   facet normal 1.000000e+00 0.000000e+00 0.000000e+00
      outer loop
         vertex 3.660000e+02 5.500000e+00 4.020000e+02
         vertex 3.660000e+02 8.500000e+00 4.020000e+02
         vertex 3.660000e+02 5.500000e+00 4.080000e+02
      endloop
   endfacet
   facet normal 1.000000e+00 -0.000000e+00 0.000000e+00
      outer loop
         vertex 3.660000e+02 5.500000e+00 4.080000e+02
         vertex 3.660000e+02 8.500000e+00 4.020000e+02
         vertex 3.660000e+02 8.500000e+00 4.080000e+02
      endloop
   endfacet
   facet normal 0.000000e+00 0.000000e+00 1.000000e+00
      outer loop
         vertex 4.560000e+02 8.500000e+00 4.080000e+02
         vertex 4.500000e+02 8.500000e+00 4.080000e+02
         vertex 4.560000e+02 5.500000e+00 4.080000e+02
      endloop
   endfacet
   facet normal 0.000000e+00 0.000000e+00 1.000000e+00
      outer loop
         vertex 4.560000e+02 5.500000e+00 4.080000e+02
         vertex 4.500000e+02 8.500000e+00 4.080000e+02
         vertex 4.500000e+02 5.500000e+00 4.080000e+02
      endloop
   endfacet
   facet normal 0.000000e+00 1.000000e+00 -0.000000e+00
      outer loop
         vertex 4.560000e+02 8.500000e+00 4.020000e+02
         vertex 4.500000e+02 8.500000e+00 4.020000e+02
         vertex 4.560000e+02 8.500000e+00 4.080000e+02
      endloop
   endfacet
   facet normal 0.000000e+00 1.000000e+00 0.000000e+00
      outer loop
         vertex 4.560000e+02 8.500000e+00 4.080000e+02
         vertex 4.500000e+02 8.500000e+00 4.020000e+02
         vertex 4.500000e+02 8.500000e+00 4.080000e+02
      endloop
   endfacet
   facet normal 0.000000e+00 0.000000e+00 -1.000000e+00
      outer loop
         vertex 4.560000e+02 5.500000e+00 4.020000e+02
         vertex 4.500000e+02 5.500000e+00 4.020000e+02
         vertex 4.560000e+02 8.500000e+00 4.020000e+02
      endloop
   endfacet
   facet normal -0.000000e+00 0.000000e+00 -1.000000e+00
      outer loop
         vertex 4.560000e+02 8.500000e+00 4.020000e+02
         vertex 4.500000e+02 5.500000e+00 4.020000e+02
         vertex 4.500000e+02 8.500000e+00 4.020000e+02
      endloop
   endfacet
   facet normal -0.000000e+00 -1.000000e+00 -0.000000e+00
      outer loop
         vertex 4.560000e+02 5.500000e+00 4.080000e+02
         vertex 4.500000e+02 5.500000e+00 4.080000e+02
         vertex 4.560000e+02 5.500000e+00 4.020000e+02
      endloop
   endfacet
   facet normal 0.000000e+00 -1.000000e+00 0.000000e+00
      outer loop
         vertex 4.560000e+02 5.500000e+00 4.020000e+02
         vertex 4.500000e+02 5.500000e+00 4.080000e+02
         vertex 4.500000e+02 5.500000e+00 4.020000e+02
      endloop
   endfacet
   facet normal -1.000000e+00 0.000000e+00 0.000000e+00
      outer loop
         vertex 4.500000e+02 8.500000e+00 4.020000e+02
         vertex 4.500000e+02 5.500000e+00 4.020000e+02
         vertex 4.500000e+02 8.500000e+00 4.080000e+02
      endloop
   endfacet
   facet normal -1.000000e+00 -0.000000e+00 0.000000e+00
      outer loop
         vertex 4.500000e+02 8.500000e+00 4.080000e+02
         vertex 4.500000e+02 5.500000e+00 4.020000e+02
         vertex 4.500000e+02 5.500000e+00 4.080000e+02
      endloop
   endfacet
   facet normal 1.000000e+00 0.000000e+00 0.000000e+00
      outer loop
         vertex 4.560000e+02 5.500000e+00 4.020000e+02
         vertex 4.560000e+02 8.500000e+00 4.020000e+02
         vertex 4.560000e+02 5.500000e+00 4.080000e+02
      endloop
   endfacet
   facet normal 1.000000e+00 -0.000000e+00 0.000000e+00
      outer loop
         vertex 4.560000e+02 5.500000e+00 4.080000e+02
         vertex 4.560000e+02 8.500000e+00 4.020000e+02
         vertex 4.560000e+02 8.500000e+00 4.080000e+02
      endloop
   endfacet
   facet normal 0.000000e+00 0.000000e+00 1.000000e+00
      outer loop
         vertex 4.560000e+02 8.500000e+00 3.180000e+02
         vertex 4.500000e+02 8.500000e+00 3.180000e+02
         vertex 4.560000e+02 5.500000e+00 3.180000e+02
      endloop
   endfacet
   facet normal 0.000000e+00 0.000000e+00 1.000000e+00
      outer loop
         vertex 4.560000e+02 5.500000e+00 3.180000e+02
         vertex 4.500000e+02 8.500000e+00 3.180000e+02
         vertex 4.500000e+02 5.500000e+00 3.180000e+02
      endloop
   endfacet
   facet normal 0.000000e+00 1.000000e+00 -0.000000e+00
      outer loop
         vertex 4.560000e+02 8.500000e+00 3.120000e+02
         vertex 4.500000e+02 8.500000e+00 3.120000e+02
         vertex 4.560000e+02 8.500000e+00 3.180000e+02
      endloop
   endfacet
   facet normal 0.000000e+00 1.000000e+00 0.000000e+00
      outer loop
         vertex 4.560000e+02 8.500000e+00 3.180000e+02
         vertex 4.500000e+02 8.500000e+00 3.120000e+02
         vertex 4.500000e+02 8.500000e+00 3.180000e+02
      endloop
   endfacet
   facet normal 0.000000e+00 0.000000e+00 -1.000000e+00
      outer loop
         vertex 4.560000e+02 5.500000e+00 3.120000e+02
         vertex 4.500000e+02 5.500000e+00 3.120000e+02
         vertex 4.560000e+02 8.500000e+00 3.120000e+02
      endloop
   endfacet
   facet normal -0.000000e+00 0.000000e+00 -1.000000e+00
      outer loop
         vertex 4.560000e+02 8.500000e+00 3.120000e+02
         vertex 4.500000e+02 5.500000e+00 3.120000e+02
         vertex 4.500000e+02 8.500000e+00 3.120000e+02
      endloop
   endfacet
   facet normal -0.000000e+00 -1.000000e+00 -0.000000e+00
      outer loop
         vertex 4.560000e+02 5.500000e+00 3.180000e+02
         vertex 4.500000e+02 5.500000e+00 3.180000e+02
         vertex 4.560000e+02 5.500000e+00 3.120000e+02
      endloop
   endfacet
   facet normal 0.000000e+00 -1.000000e+00 0.000000e+00
      outer loop
         vertex 4.560000e+02 5.500000e+00 3.120000e+02
         vertex 4.500000e+02 5.500000e+00 3.180000e+02
         vertex 4.500000e+02 5.500000e+00 3.120000e+02
      endloop
   endfacet
   facet normal -1.000000e+00 0.000000e+00 0.000000e+00
      outer loop
         vertex 4.500000e+02 8.500000e+00 3.120000e+02
         vertex 4.500000e+02 5.500000e+00 3.120000e+02
         vertex 4.500000e+02 8.500000e+00 3.180000e+02
      endloop
   endfacet
   facet normal -1.000000e+00 -0.000000e+00 0.000000e+00
      outer loop
         vertex 4.500000e+02 8.500000e+00 3.180000e+02
         vertex 4.500000e+02 5.500000e+00 3.120000e+02
         vertex 4.500000e+02 5.500000e+00 3.180000e+02
      endloop
   endfacet
   facet normal 1.000000e+00 0.000000e+00 0.000000e+00
      outer loop
         vertex 4.560000e+02 5.500000e+00 3.120000e+02
         vertex 4.560000e+02 8.500000e+00 3.120000e+02
         vertex 4.560000e+02 5.500000e+00 3.180000e+02
      endloop
   endfacet
   facet normal 1.000000e+00 -0.000000e+00 0.000000e+00
      outer loop
         vertex 4.560000e+02 5.500000e+00 3.180000e+02
         vertex 4.560000e+02 8.500000e+00 3.120000e+02
         vertex 4.560000e+02 8.500000e+00 3.180000e+02
      endloop
   endfacet
   facet normal 0.000000e+00 0.000000e+00 1.000000e+00
      outer loop
         vertex 3.660000e+02 8.500000e+00 3.180000e+02
         vertex 3.600000e+02 8.500000e+00 3.180000e+02
         vertex 3.660000e+02 5.500000e+00 3.180000e+02
      endloop
   endfacet
   facet normal 0.000000e+00 0.000000e+00 1.000000e+00
      outer loop
         vertex 3.660000e+02 5.500000e+00 3.180000e+02
         vertex 3.600000e+02 8.500000e+00 3.180000e+02
         vertex 3.600000e+02 5.500000e+00 3.180000e+02
      endloop
   endfacet
   facet normal 0.000000e+00 1.000000e+00 -0.000000e+00
      outer loop
         vertex 3.660000e+02 8.500000e+00 3.120000e+02
         vertex 3.600000e+02 8.500000e+00 3.120000e+02
         vertex 3.660000e+02 8.500000e+00 3.180000e+02
      endloop
   endfacet
   facet normal 0.000000e+00 1.000000e+00 0.000000e+00
      outer loop
         vertex 3.660000e+02 8.500000e+00 3.180000e+02
         vertex 3.600000e+02 8.500000e+00 3.120000e+02
         vertex 3.600000e+02 8.500000e+00 3.180000e+02
      endloop
   endfacet
   facet normal 0.000000e+00 0.000000e+00 -1.000000e+00
      outer loop
         vertex 3.660000e+02 5.500000e+00 3.120000e+02
         vertex 3.600000e+02 5.500000e+00 3.120000e+02
         vertex 3.660000e+02 8.500000e+00 3.120000e+02
      endloop
   endfacet
   facet normal -0.000000e+00 0.000000e+00 -1.000000e+00
      outer loop
         vertex 3.660000e+02 8.500000e+00 3.120000e+02
         vertex 3.600000e+02 5.500000e+00 3.120000e+02
         vertex 3.600000e+02 8.500000e+00 3.120000e+02
      endloop
   endfacet
   facet normal -0.000000e+00 -1.000000e+00 -0.000000e+00
      outer loop
         vertex 3.660000e+02 5.500000e+00 3.180000e+02
         vertex 3.600000e+02 5.500000e+00 3.180000e+02
         vertex 3.660000e+02 5.500000e+00 3.120000e+02
      endloop
   endfacet
   facet normal 0.000000e+00 -1.000000e+00 0.000000e+00
      outer loop
         vertex 3.660000e+02 5.500000e+00 3.120000e+02
         vertex 3.600000e+02 5.500000e+00 3.180000e+02
         vertex 3.600000e+02 5.500000e+00 3.120000e+02
      endloop
   endfacet
   facet normal -1.000000e+00 0.000000e+00 0.000000e+00
      outer loop
         vertex 3.600000e+02 8.500000e+00 3.120000e+02
         vertex 3.600000e+02 5.500000e+00 3.120000e+02
         vertex 3.600000e+02 8.500000e+00 3.180000e+02
      endloop
   endfacet
   facet normal -1.000000e+00 -0.000000e+00 0.000000e+00
      outer loop
         vertex 3.600000e+02 8.500000e+00 3.180000e+02
         vertex 3.600000e+02 5.500000e+00 3.120000e+02
         vertex 3.600000e+02 5.500000e+00 3.180000e+02
      endloop
   endfacet
   facet normal 1.000000e+00 0.000000e+00 0.000000e+00
      outer loop
         vertex 3.660000e+02 5.500000e+00 3.120000e+02
         vertex 3.660000e+02 8.500000e+00 3.120000e+02
         vertex 3.660000e+02 5.500000e+00 3.180000e+02
      endloop
   endfacet
   facet normal 1.000000e+00 -0.000000e+00 0.000000e+00
      outer loop
         vertex 3.660000e+02 5.500000e+00 3.180000e+02
         vertex 3.660000e+02 8.500000e+00 3.120000e+02
         vertex 3.660000e+02 8.500000e+00 3.180000e+02
      endloop
   endfacet
   facet normal 0.000000e+00 0.000000e+00 1.000000e+00
      outer loop
         vertex 4.110000e+02 8.500000e+00 3.630000e+02
         vertex 4.050000e+02 8.500000e+00 3.630000e+02
         vertex 4.110000e+02 5.500000e+00 3.630000e+02
      endloop
   endfacet
   facet normal 0.000000e+00 0.000000e+00 1.000000e+00
      outer loop
         vertex 4.110000e+02 5.500000e+00 3.630000e+02
         vertex 4.050000e+02 8.500000e+00 3.630000e+02
         vertex 4.050000e+02 5.500000e+00 3.630000e+02
      endloop
   endfacet
   facet normal 0.000000e+00 1.000000e+00 -0.000000e+00
      outer loop
         vertex 4.110000e+02 8.500000e+00 3.570000e+02
         vertex 4.050000e+02 8.500000e+00 3.570000e+02
         vertex 4.110000e+02 8.500000e+00 3.630000e+02
      endloop
   endfacet
   facet normal 0.000000e+00 1.000000e+00 0.000000e+00
      outer loop
         vertex 4.110000e+02 8.500000e+00 3.630000e+02
         vertex 4.050000e+02 8.500000e+00 3.570000e+02
         vertex 4.050000e+02 8.500000e+00 3.630000e+02
      endloop
   endfacet
   facet normal 0.000000e+00 0.000000e+00 -1.000000e+00
      outer loop
         vertex 4.110000e+02 5.500000e+00 3.570000e+02
         vertex 4.050000e+02 5.500000e+00 3.570000e+02
         vertex 4.110000e+02 8.500000e+00 3.570000e+02
      endloop
   endfacet
   facet normal -0.000000e+00 0.000000e+00 -1.000000e+00
      outer loop
         vertex 4.110000e+02 8.500000e+00 3.570000e+02
         vertex 4.050000e+02 5.500000e+00 3.570000e+02
         vertex 4.050000e+02 8.500000e+00 3.570000e+02
      endloop
   endfacet
   facet normal -0.000000e+00 -1.000000e+00 -0.000000e+00
      outer loop
         vertex 4.110000e+02 5.500000e+00 3.630000e+02
         vertex 4.050000e+02 5.500000e+00 3.630000e+02
         vertex 4.110000e+02 5.500000e+00 3.570000e+02
      endloop
   endfacet
   facet normal 0.000000e+00 -1.000000e+00 0.000000e+00
      outer loop
         vertex 4.110000e+02 5.500000e+00 3.570000e+02
         vertex 4.050000e+02 5.500000e+00 3.630000e+02
         vertex 4.050000e+02 5.500000e+00 3.570000e+02
      endloop
   endfacet
   facet normal -1.000000e+00 0.000000e+00 0.000000e+00
      outer loop
         vertex 4.050000e+02 8.500000e+00 3.570000e+02
         vertex 4.050000e+02 5.500000e+00 3.570000e+02
         vertex 4.050000e+02 8.500000e+00 3.630000e+02
      endloop
   endfacet
   facet normal -1.000000e+00 -0.000000e+00 0.000000e+00
      outer loop
         vertex 4.050000e+02 8.500000e+00 3.630000e+02
         vertex 4.050000e+02 5.500000e+00 3.570000e+02
         vertex 4.050000e+02 5.500000e+00 3.630000e+02
      endloop
   endfacet
   facet normal 1.000000e+00 0.000000e+00 0.000000e+00
      outer loop
         vertex 4.110000e+02 5.500000e+00 3.570000e+02
         vertex 4.110000e+02 8.500000e+00 3.570000e+02
         vertex 4.110000e+02 5.500000e+00 3.630000e+02
      endloop
   endfacet
   facet normal 1.000000e+00 -0.000000e+00 0.000000e+00
      outer loop
         vertex 4.110000e+02 5.500000e+00 3.630000e+02
         vertex 4.110000e+02 8.500000e+00 3.570000e+02
         vertex 4.110000e+02 8.500000e+00 3.630000e+02
      endloop
   endfacet
endsolid